<svg xmlns="http://www.w3.org/2000/svg" xmlns:xlink="http://www.w3.org/1999/xlink" width="48" height="48" viewBox="0 0 48 48"><defs><style>.a{fill:#45c0c1;}.b{fill:#2eb4b7;}.c{fill:#fff;}.d{filter:url(#a);}</style><filter id="a" x="7" y="7" width="34.059" height="36.794" filterUnits="userSpaceOnUse"><feOffset dy="1" input="SourceAlpha"/><feGaussianBlur stdDeviation="1" result="b"/><feFlood flood-opacity="0.102"/><feComposite operator="in" in2="b"/><feComposite in="SourceGraphic"/></filter></defs><g transform="translate(-899 -404)"><g transform="translate(899 404.098)"><rect class="a" width="48" height="48" rx="8" transform="translate(0 -0.098)"/><path class="b" d="M24.566,9.107l6.577,1.178.382-2.742L46.387,24.126V38.639A7.664,7.664,0,0,1,38.722,46.3H22.3L9.375,37.433l11.69-11.98Z" transform="translate(1.423 1.6)"/></g><g class="d" transform="matrix(1, 0, 0, 1, 899, 404)"><path class="c" d="M7753.764-10350.207H7728.3a1.328,1.328,0,0,1-1.025-.458,1.2,1.2,0,0,1-.256-.993,14.986,14.986,0,0,1,1.17-5.375,12.133,12.133,0,0,1,2.879-4.184,12.3,12.3,0,0,1,5.666-2.926,8.993,8.993,0,0,1-4.634-7.876,8.966,8.966,0,0,1,8.928-8.982h8.928v8.982a8.994,8.994,0,0,1-4.636,7.876,12.3,12.3,0,0,1,5.667,2.926,12.152,12.152,0,0,1,2.882,4.184,14.982,14.982,0,0,1,1.176,5.375,1.273,1.273,0,0,1-.292,1.022A1.292,1.292,0,0,1,7753.764-10350.207Zm-12.294-11.536a1.4,1.4,0,0,0-1.4,1.4v3.772a1.4,1.4,0,0,0,1.4,1.4,1.4,1.4,0,0,0,1.4-1.4v-3.772A1.4,1.4,0,0,0,7741.47-10361.743Z" transform="translate(-7717 10390)"/></g></g></svg>