<svg xmlns="http://www.w3.org/2000/svg" xmlns:xlink="http://www.w3.org/1999/xlink" width="48" height="48" viewBox="0 0 48 48"><defs><style>.a{fill:#69d07d;}.b{fill:#3dbf74;}.c{fill:#fff;stroke:rgba(0,0,0,0);stroke-miterlimit:10;}.d{filter:url(#a);}</style><filter id="a" x="5.722" y="5.52" width="37.147" height="34.406" filterUnits="userSpaceOnUse"><feOffset dy="1" input="SourceAlpha"/><feGaussianBlur stdDeviation="1" result="b"/><feFlood flood-opacity="0.102"/><feComposite operator="in" in2="b"/><feComposite in="SourceGraphic"/></filter></defs><g transform="translate(-207 -284)"><rect class="a" width="48" height="48" rx="8" transform="translate(207 284)"/><path class="b" d="M29.258,8.655,48,24V40a8,8,0,0,1-8,8H24L9.653,33.88l10.025-14.2-5.661-4.488L17.5,11.279l14.7,10.849L24,14.81Z" transform="translate(207 284)"/><g class="d" transform="matrix(1, 0, 0, 1, 207, 284)"><path class="c" d="M69.868,98.341a1.965,1.965,0,0,1,2.946,1.8v8.432a1.969,1.969,0,0,1-2.95,1.8l-2.445-1.488v.966a2.853,2.853,0,0,1-2.765,2.917H45.432a2.854,2.854,0,0,1-2.765-2.919V97.865a2.854,2.854,0,0,1,2.765-2.919H64.658a2.853,2.853,0,0,1,2.764,2.919v1.964l2.445-1.488Zm-16.148.882c-.647-.471-1.457.118-1.461,1.061v7.135c0,.947.814,1.535,1.461,1.065l4.906-3.568a1.405,1.405,0,0,0,0-2.124Zm-1.461-8.388a2.741,2.741,0,1,1-2.741-2.741,2.741,2.741,0,0,1,2.741,2.741m8.222,2.741a4.111,4.111,0,1,0-4.111-4.111,4.11,4.11,0,0,0,4.111,4.111Z" transform="translate(-33.44 -77.33)"/></g></g></svg>