<svg xmlns="http://www.w3.org/2000/svg" width="16" height="16" viewBox="0 0 16 16"><defs><style>.cls-1{opacity:0}.cls-2{opacity:.65}</style></defs><g id="shezhi_icon_glyzhgl_nor" transform="translate(-1155 -280)"><rect id="矩形_56" width="16" height="16" class="cls-1" data-name="矩形 56" transform="translate(1155 280)"/><path id="路径_2887" d="M96.306,48a3.926,3.926,0,1,0,3.926,3.926A3.926,3.926,0,0,0,96.306,48Zm0,1a2.927,2.927,0,1,1-2.927,2.927A2.927,2.927,0,0,1,96.306,49Zm3.712,7.567H92.594a1.927,1.927,0,0,0,0,3.855h7.424a1.927,1.927,0,0,0,0-3.855Zm-7.424,1h7.424a.928.928,0,0,1,0,1.856H92.594a.928.928,0,0,1,0-1.856Z" class="cls-2" data-name="路径 2887" transform="translate(1066.333 233.789)"/></g></svg>