<svg xmlns="http://www.w3.org/2000/svg" width="16" height="16" viewBox="0 0 16 16">
  <defs>
    <style>
      .cls-1 {
        opacity: 0
      }

      .cls-2 {
        opacity: 1
      }
    </style>
  </defs>
  <g id="icon_jlzx" transform="translate(-15 -243)">
    <rect id="矩形_56" width="16" height="16" class="cls-1" data-name="矩形 56" transform="translate(15 243)" />
    <g id="组_6034" data-name="组 6034" transform="translate(-52.332 155.333)">
      <path id="路径_6194" d="M263.938,282.667a.465.465,0,0,1,.038.927l-.038,0h-2.124a.465.465,0,0,1-.038-.927l.038,0Z"
        class="cls-2" data-name="路径 6194" transform="translate(-189.627 -189.611)" />
      <path id="路径_6195"
        d="M78.027,90.667H71.656a2.323,2.323,0,0,0-2.323,2.323V98.1a2.323,2.323,0,0,0,2.322,2.254h.281v.012a1,1,0,0,0,.141.457l.029.046a1,1,0,0,0,1.337.292l1.336-.807h3.245a2.323,2.323,0,0,0,2.323-2.323V92.989A2.323,2.323,0,0,0,78.027,90.667Zm-6.371.929h6.371a1.393,1.393,0,0,1,1.394,1.394v5.043a1.393,1.393,0,0,1-1.394,1.394H74.653a.464.464,0,0,0-.24.067l-1.447.873a.066.066,0,0,1-.1-.053l-.026-.449a.465.465,0,0,0-.464-.438h-.719a1.394,1.394,0,0,1-1.394-1.394V92.989A1.393,1.393,0,0,1,71.656,91.6Z"
        class="cls-2" data-name="路径 6195" />
    </g>
  </g>
</svg>