<svg xmlns="http://www.w3.org/2000/svg" width="48" height="48" viewBox="0 0 48 48"><defs><style>.a,.d{fill:#fff;}.a{stroke:#707070;opacity:0;}.b{fill:#131415;}.c{fill:#389efa;}.e{stroke:none;}.f{fill:none;}</style></defs><g transform="translate(-280 -1189)"><g class="a" transform="translate(280 1189)"><rect class="e" width="48" height="48"/><rect class="f" x="0.5" y="0.5" width="47" height="47"/></g><g transform="translate(101.134 1127.56)"><path class="b" d="M207.775,106.167a1.636,1.636,0,0,1,0,3.273h-9.818a1.636,1.636,0,1,1,0-3.273ZM202.865,61.44a18.547,18.547,0,0,1,8.727,34.912v4.36a2.182,2.182,0,0,1-2.182,2.182H196.32a2.182,2.182,0,0,1-2.182-2.182V96.353a18.548,18.548,0,0,1,8.727-34.913Z" transform="translate(0 0)"/><path class="c" d="M207.775,106.167a1.636,1.636,0,0,1,0,3.273h-9.818a1.636,1.636,0,1,1,0-3.273ZM202.865,61.44a18.547,18.547,0,0,1,8.727,34.912v4.36a2.182,2.182,0,0,1-2.182,2.182H196.32a2.182,2.182,0,0,1-2.182-2.182V96.353a18.548,18.548,0,0,1,8.727-34.913Z" transform="translate(0 0)"/><path class="d" d="M290.111,153.6a1.636,1.636,0,1,1,0,3.273,10.472,10.472,0,0,0-10.39,8.472,1.636,1.636,0,1,1-3.221-.58A13.745,13.745,0,0,1,290.111,153.6Z" transform="translate(-87.246 -87.251)"/></g></g></svg>