<svg xmlns="http://www.w3.org/2000/svg" xmlns:xlink="http://www.w3.org/1999/xlink" width="40" height="40" viewBox="0 0 40 40"><defs><style>.a,.b{fill:#fff;}.a{opacity:0;}.c,.d{stroke:none;}.d{fill:#707070;}.e{filter:url(#c);}.f{filter:url(#a);}</style><filter id="a" x="3.219" y="1.469" width="33.755" height="38.06" filterUnits="userSpaceOnUse"><feOffset dy="1" input="SourceAlpha"/><feGaussianBlur stdDeviation="0.5" result="b"/><feFlood flood-opacity="0.102"/><feComposite operator="in" in2="b"/><feComposite in="SourceGraphic"/></filter><filter id="c" x="2.808" y="28.198" width="34.756" height="9.956" filterUnits="userSpaceOnUse"><feOffset dy="1" input="SourceAlpha"/><feGaussianBlur stdDeviation="0.5" result="d"/><feFlood flood-opacity="0.102"/><feComposite operator="in" in2="d"/><feComposite in="SourceGraphic"/></filter></defs><g transform="translate(-26 -13)"><g class="a" transform="translate(26 13)"><path class="c" d="M 39.5 39.5 L 0.5 39.5 L 0.5 0.5 L 39.5 0.5 L 39.5 39.5 Z"/><path class="d" d="M 1 1 L 1 39 L 39 39 L 39 1 L 1 1 M 0 0 L 40 0 L 40 40 L 0 40 L 0 0 Z"/></g><g transform="translate(-186.109 -173.73)"><g class="f" transform="matrix(1, 0, 0, 1, 212.11, 186.73)"><path class="b" d="M254.444,195.155c-.284-2.405-1.841-3.493-4.154-2.828a37.967,37.967,0,0,0-4.293,1.6.939.939,0,0,1-1.326-.381c-.856-1.162-1.746-2.3-2.644-3.426a3.119,3.119,0,0,0-5.186-.072c-1.007,1.193-2.022,2.377-3,3.593a.839.839,0,0,1-1.126.309c-1.257-.5-2.542-.932-3.81-1.4-2.664-.993-4.7.275-4.85,3.125a40.937,40.937,0,0,0,.031,5.289,15.748,15.748,0,0,0,3.885,9.91c2.575,2.789,5.553,4.805,9.429,5.217.492.053.626.275.62.745-.011.957-.019,1.913-.017,2.872v2.664a1.39,1.39,0,0,0,2.781.011l0-.409c.014-1.532.05-3.067-.014-4.6-.039-.918.158-1.321,1.176-1.446a13.942,13.942,0,0,0,11.145-7.961c1.407-2.7,1.641-5.617,1.646-9.076C254.666,197.972,254.611,196.556,254.444,195.155Zm-22.362,12.171a1.388,1.388,0,0,1-1.955-.2c-2.027-2.5-2.052-7.055-2.047-7.566a1.39,1.39,0,1,1,2.781.022c-.006,1.115.239,4.33,1.426,5.792A1.391,1.391,0,0,1,232.082,207.326Z" transform="translate(-219.26 -186.73)"/></g><g class="e" transform="matrix(1, 0, 0, 1, 212.11, 186.73)"><path class="b" d="M246.338,680.858c1.084.039,1.752.492,1.83,1.321s-.592,1.421-1.641,1.6a40.937,40.937,0,0,0-4.724.945,8.328,8.328,0,0,0-3.9,2.453,1.379,1.379,0,0,1-2.088.278c-.642-.592-.637-1.374.072-2.172a12.411,12.411,0,0,1,5.976-3.557A44.265,44.265,0,0,1,246.338,680.858Zm-28.057.1a16.209,16.209,0,0,1,8.82,2.92,11.48,11.48,0,0,1,1.788,1.68,1.284,1.284,0,0,1-.172,1.882,1.23,1.23,0,0,1-1.813-.069c-2.244-2.414-5.158-3.251-8.292-3.6-.35-.039-.7-.089-1.046-.147a1.285,1.285,0,0,1-1.148-1.429,1.338,1.338,0,0,1,1.421-1.265C217.989,680.933,218.136,680.952,218.281,680.961Z" transform="translate(-212.11 -652.16)"/></g></g></g></svg>