<svg xmlns="http://www.w3.org/2000/svg" id="组_6286" width="15.739" height="16" data-name="组 6286" viewBox="0 0 15.739 16"><defs><style>.cls-1{fill:#3aa1fa}</style></defs><path id="路径_6211" d="M226.413,27.226h.393a.537.537,0,0,0,.577-.5v-2.2a.555.555,0,0,0-.577-.525h-.393a.545.545,0,0,0-.577.551v2.177a.537.537,0,0,0,.577.5Zm-8.236,0h.393a.537.537,0,0,0,.577-.5v-2.2A.555.555,0,0,0,218.57,24h-.393a.545.545,0,0,0-.577.551v2.177a.537.537,0,0,0,.577.5Zm6.033,7.449v-.839h-3.252a4.19,4.19,0,0,1,0,.839Zm-3.252-2.6h3.252v.839h-3.252Z" class="cls-1" data-name="路径 6211" transform="translate(-214.61 -24)"/><path id="路径_6212" d="M49.836,132.8H48.708v.944A1.265,1.265,0,0,1,47.423,135H47.03a1.265,1.265,0,0,1-1.285-1.259V132.8H40.472v.944A1.265,1.265,0,0,1,39.187,135h-.393a1.265,1.265,0,0,1-1.285-1.259V132.8h-1.18a1.1,1.1,0,0,0-1.128,1.1v12.013a1.114,1.114,0,0,0,1.128,1.1H49.784a1.137,1.137,0,0,0,1.154-1.1V133.9A1.061,1.061,0,0,0,49.836,132.8ZM45.9,143.449a1.77,1.77,0,0,1-.262.97.9.9,0,0,1-.734.341c-.315,0-.866.026-1.652.026a7.5,7.5,0,0,0-.262-1.1c.5.026.918.026,1.259.026.42,0,.577-.157.577-.5v-.525h-3.3a4.562,4.562,0,0,1-.341,1.259,4.514,4.514,0,0,1-.708.892c-.341-.262-.63-.525-.97-.787a3.1,3.1,0,0,0,.839-1.259,10.648,10.648,0,0,0,.157-1.915V138.1h5.4Z" class="cls-1" data-name="路径 6212" transform="translate(-35.2 -131.016)"/></svg>