<svg xmlns="http://www.w3.org/2000/svg" width="24" height="24" viewBox="0 0 24 24"><defs><style>.cls-1,.cls-2{fill:#fff}.cls-1{opacity:0}</style></defs><g id="nav_icon_ykt_pre" transform="translate(-621 -15)"><rect id="矩形_40" width="24" height="24" class="cls-1" data-name="矩形 40" transform="translate(621 15)"/><g id="组_2028" data-name="组 2028" transform="translate(576 -36.67)"><path id="路径_2209" d="M60.586,54.675l-9.865.6A2.9,2.9,0,0,0,48,58.163v11.4a2.9,2.9,0,0,0,2.72,2.89l9.866.6a2.9,2.9,0,0,0,3.07-2.89v-12.6a2.9,2.9,0,0,0-3.07-2.89Zm.091,1.5a1.394,1.394,0,0,1,1.476,1.307l0,.084v12.6a1.394,1.394,0,0,1-1.394,1.394h-.042l-9.908-.6a1.394,1.394,0,0,1-1.31-1.391v-11.4a1.394,1.394,0,0,1,1.309-1.391Zm5.446,1.365a.751.751,0,0,1,.748.689l0,.062V69.441a.751.751,0,0,1-1.5.062l0-.062V58.289a.751.751,0,0,1,.751-.751Z" class="cls-2" data-name="路径 2209"/><path id="路径_2210" d="M305.542,362.26a1.5,1.5,0,0,0-.2.745v2.934a1.5,1.5,0,0,0,2.327,1.253l2.384-1.572a1.5,1.5,0,0,0-.081-2.556L307.59,361.7a1.5,1.5,0,0,0-2,.486Zm1.41.558,2.384,1.362a.214.214,0,0,1,.012.365l-2.384,1.572a.214.214,0,0,1-.333-.179V363a.214.214,0,0,1,.321-.186Z" class="cls-2" data-name="路径 2210" transform="translate(-252.17 -300.664)"/></g></g></svg>