<svg xmlns="http://www.w3.org/2000/svg" width="24" height="24" viewBox="0 0 24 24"><defs><style>.cls-1,.cls-2{fill:#fff}.cls-1{opacity:0}</style></defs><g id="nav_icon_stgx_pre" transform="translate(-729 -15)"><rect id="矩形_41" width="24" height="24" class="cls-1" data-name="矩形 41" transform="translate(729 15)"/><path id="路径_2202" d="M59.643,149.333v4.9h-.027a4.413,4.413,0,1,1-4.875-4.875v-.027Zm-1.716,1.716H55.075l-.146.017a2.7,2.7,0,0,0-2.392,2.565l0,.114a2.7,2.7,0,0,0,5.361.414l.015-.113.017-.151Zm10.05-.245v3.922h-.008a3.677,3.677,0,1,1-3.914-3.914V150.8Zm-1.471,1.47h-2.28l-.074,0a2.206,2.206,0,0,0-2.055,2.1l0,.105a2.206,2.206,0,0,0,4.4.253l.01-.1,0-.067v-2.288ZM59.4,159.26H51.064A3.064,3.064,0,0,0,48,162.324v1.226a1.838,1.838,0,0,0,1.838,1.838H60.623a1.838,1.838,0,0,0,1.838-1.838v-1.226A3.064,3.064,0,0,0,59.4,159.26Zm-8.334,1.716H59.4a1.348,1.348,0,0,1,1.348,1.348v1.226a.123.123,0,0,1-.123.123H49.838a.123.123,0,0,1-.123-.123v-1.226A1.348,1.348,0,0,1,51.064,160.976Zm16.051-1.72a2.515,2.515,0,0,1,2.512,2.408l0,.106v.988a1.527,1.527,0,0,1-1.439,1.524l-.087,0H64.016a.735.735,0,0,1-.071-1.467l.071,0H68.1a.055.055,0,0,0,.05-.034l0-.022v-.988a1.044,1.044,0,0,0-.969-1.041l-.075,0H63.562a.735.735,0,0,1-.071-1.467l.071,0h3.553Z" class="cls-2" data-name="路径 2202" transform="translate(682.215 -129.916)"/></g></svg>