<svg xmlns="http://www.w3.org/2000/svg" width="16" height="16" viewBox="0 0 16 16">
  <defs>
    <style>
      .cls-1 {
        opacity: 0;
      }

      .cls-2 {
        stroke: rgba(0,0,0,0);
        stroke-miterlimit: 10;
        opacity: 0.65;
      }
    </style>
  </defs>
  <g id="shezhi_icon_zzgl_nor" transform="translate(-1155 -328)">
    <rect id="矩形_56" data-name="矩形 56" class="cls-1" width="16" height="16" transform="translate(1155 328)"/>
    <path id="路径_5781" data-name="路径 5781" class="cls-2" d="M10.14,7.66a.175.175,0,0,1-.175-.175V6.644A1.049,1.049,0,0,0,8.916,5.595h-2.8a.175.175,0,0,1-.175-.175V4.371A.175.175,0,0,1,6.119,4.2h.524A1.049,1.049,0,0,0,7.693,3.147v-2.1A1.049,1.049,0,0,0,6.644,0h-2.1A1.049,1.049,0,0,0,3.5,1.049v2.1A1.049,1.049,0,0,0,4.546,4.2H5.07a.175.175,0,0,1,.175.175V5.42a.175.175,0,0,1-.175.175h-2.8A1.049,1.049,0,0,0,1.224,6.644v.841a.175.175,0,0,1-.175.175A1.049,1.049,0,0,0,0,8.709V10.14a1.049,1.049,0,0,0,1.049,1.049H2.1A1.049,1.049,0,0,0,3.147,10.14V8.709A1.049,1.049,0,0,0,2.1,7.66a.175.175,0,0,1-.175-.175V6.644a.349.349,0,0,1,.35-.35h2.8a.175.175,0,0,1,.175.175V7.5a.164.164,0,0,1-.164.164H5.07A1.049,1.049,0,0,0,4.021,8.709V10.14A1.049,1.049,0,0,0,5.07,11.189H6.119A1.049,1.049,0,0,0,7.168,10.14V8.709A1.049,1.049,0,0,0,6.119,7.66H6.108A.164.164,0,0,1,5.944,7.5V6.469a.175.175,0,0,1,.175-.175h2.8a.349.349,0,0,1,.35.35v.841a.175.175,0,0,1-.175.175A1.049,1.049,0,0,0,8.042,8.709V10.14a1.049,1.049,0,0,0,1.049,1.049H10.14a1.049,1.049,0,0,0,1.049-1.049V8.709A1.049,1.049,0,0,0,10.14,7.66Zm-8.042.7a.351.351,0,0,1,.35.35V10.14a.351.351,0,0,1-.35.35H1.049a.351.351,0,0,1-.35-.35V8.709a.351.351,0,0,1,.35-.35Zm4.021,0a.351.351,0,0,1,.35.35V10.14a.351.351,0,0,1-.35.35H5.07a.351.351,0,0,1-.35-.35V8.709a.351.351,0,0,1,.35-.35ZM4.546,3.5a.351.351,0,0,1-.35-.35v-2.1A.351.351,0,0,1,4.546.7h2.1a.351.351,0,0,1,.35.35v2.1a.351.351,0,0,1-.35.35ZM10.49,10.14a.351.351,0,0,1-.35.35H9.091a.351.351,0,0,1-.35-.35V8.709a.351.351,0,0,1,.35-.35H10.14a.351.351,0,0,1,.35.35Z" transform="translate(1157 330)"/>
  </g>
</svg>
