<svg id="icon_shouqi" xmlns="http://www.w3.org/2000/svg" width="16" height="16" viewBox="0 0 16 16">
  <defs>
    <style>
      .cls-1, .cls-2 {
        fill: rgba(0,0,0,0.45);
      }

      .cls-1 {
        opacity: 0;
      }
    </style>
  </defs>
  <g id="outdent">
    <rect id="矩形" class="cls-1" width="16" height="16"/>
    <path id="形状" class="cls-2" d="M.125,11A.125.125,0,0,1,0,10.875V10a.125.125,0,0,1,.125-.125h12.25A.126.126,0,0,1,12.5,10v.875a.125.125,0,0,1-.125.125Zm4.5-3.281A.125.125,0,0,1,4.5,7.593V6.719a.125.125,0,0,1,.125-.125h7.5a.125.125,0,0,1,.125.125v.875a.125.125,0,0,1-.125.125ZM2.5,7.531.053,5.608a.137.137,0,0,1,0-.216L2.5,3.469a.138.138,0,0,1,.225.108V7.423a.139.139,0,0,1-.139.138A.136.136,0,0,1,2.5,7.531ZM4.625,4.406A.125.125,0,0,1,4.5,4.281V3.407a.125.125,0,0,1,.125-.125h7.5a.125.125,0,0,1,.125.125v.875a.125.125,0,0,1-.125.125ZM.125,1.125A.125.125,0,0,1,0,1V.125A.125.125,0,0,1,.125,0h12.25A.125.125,0,0,1,12.5.125V1a.126.126,0,0,1-.125.125Z" transform="translate(1.75 2.5)"/>
  </g>
</svg>
