<svg xmlns="http://www.w3.org/2000/svg" width="48" height="48" viewBox="0 0 48 48"><defs><style>.a{fill:#fff;stroke:#707070;opacity:0;}.b{fill:#32a0f4;}.c{stroke:none;}.d{fill:none;}</style></defs><g transform="translate(-280 -1189)"><g class="a" transform="translate(280 1189)"><rect class="c" width="48" height="48"/><rect class="d" x="0.5" y="0.5" width="47" height="47"/></g><path class="b" d="M6.556,0H37.15a6.556,6.556,0,0,1,6.556,6.556V32.779a6.556,6.556,0,0,1-6.556,6.556H6.556A6.556,6.556,0,0,1,0,32.779V6.556A6.556,6.556,0,0,1,6.556,0ZM4.371,6.556v4.371H8.741V6.556Zm30.594,0v4.371h4.371V6.556ZM4.371,17.482v4.371H8.741V17.482Zm30.594,0v4.371h4.371V17.482ZM4.371,28.409v4.371H8.741V28.409Zm30.594,0v4.371h4.371V28.409Zm-6.556-8.741L15.3,13.112V26.223Z" transform="translate(282.147 1193.333)"/></g></svg>