<svg xmlns="http://www.w3.org/2000/svg" width="24" height="24" viewBox="0 0 24 24"><defs><style>.cls-1,.cls-2{fill:#fff}.cls-1{opacity:0}</style></defs><g id="nav_icon_yhgl_pre" transform="translate(-945 -15)"><rect id="矩形_43" width="24" height="24" class="cls-1" data-name="矩形 43" transform="translate(945 15)"/><path id="路径_2206" d="M77.114,192a4.747,4.747,0,1,1-4.747,4.747A4.747,4.747,0,0,1,77.114,192Zm0,1.846a2.9,2.9,0,1,0,2.9,2.9,2.9,2.9,0,0,0-2.9-2.9Zm3.165,8.835a4.615,4.615,0,0,1,4.615,4.615.923.923,0,0,1-1.843.076l0-.076a2.769,2.769,0,0,0-2.656-2.767l-.114,0h-6.33A2.769,2.769,0,0,0,71.18,207.3a.923.923,0,1,1-1.846,0,4.616,4.616,0,0,1,4.479-4.613l.136,0Zm10.022-5.8a.923.923,0,0,1,.076,1.843l-.076,0H84.5a.923.923,0,0,1-.076-1.843l.076,0Zm0,5.275A.923.923,0,0,1,90.377,204l-.076,0H87.136a.923.923,0,0,1-.076-1.843l.076,0Z" class="cls-2" data-name="路径 2206" transform="translate(876.751 -172.678)"/></g></svg>