<svg xmlns="http://www.w3.org/2000/svg" id="组_6285" width="15.739" height="16" data-name="组 6285" viewBox="0 0 15.739 16"><defs><style>.cls-1{fill:#36cbcb}</style></defs><path id="路径_6208" d="M226.278,27.252h.393a.532.532,0,0,0,.551-.525V24.551a.538.538,0,0,0-.551-.551h-.393a.538.538,0,0,0-.551.551V26.7A.523.523,0,0,0,226.278,27.252Zm-8.236,0h.393a.532.532,0,0,0,.551-.525V24.551a.538.538,0,0,0-.551-.551h-.393a.538.538,0,0,0-.551.551V26.7A.523.523,0,0,0,218.042,27.252Z" class="cls-1" data-name="路径 6208" transform="translate(-214.501 -24)"/><path id="路径_6209" d="M49.836,134.4H48.708v.918a1.272,1.272,0,0,1-1.311,1.259H47a1.288,1.288,0,0,1-1.311-1.259V134.4H40.446v.918a1.272,1.272,0,0,1-1.311,1.259h-.393a1.288,1.288,0,0,1-1.311-1.259V134.4h-1.1a1.1,1.1,0,0,0-1.128,1.1v11.987a1.1,1.1,0,0,0,1.128,1.1H49.784a1.137,1.137,0,0,0,1.154-1.1V135.5A1.061,1.061,0,0,0,49.836,134.4Zm-8.289,11.121v-2.256h3.121v1.915h-2.23v.341Zm4.7-.63a1.586,1.586,0,0,1-.289,1.023,1.04,1.04,0,0,1-.813.367H43.987c-.079-.341-.131-.656-.21-.971a6.632,6.632,0,0,0,.734.026c.341,0,.551-.079.6-.184a.586.586,0,0,0,.079-.367v-4.328H43.567v.472h1.259v.708H43.567v.472H45.01v.682H41.128v-.682H42.57v-.472H41.311v-.682H42.57v-.472H40.944v2.387a6.436,6.436,0,0,1-.839,3.593c-.289-.236-.551-.472-.839-.682a5.185,5.185,0,0,0,.682-3.016v-3.121h6.3Z" class="cls-1" data-name="路径 6209" transform="translate(-35.2 -132.59)"/><path id="路径_6210" d="M478.4,715.2h1.259v.577H478.4Z" class="cls-1" data-name="路径 6210" transform="translate(-471.134 -703.869)"/></svg>