<svg xmlns="http://www.w3.org/2000/svg" width="48" height="48" viewBox="0 0 48 48"><defs><style>.a{fill:#fff;opacity:0;}.b{fill:#389efa;}.c,.d{stroke:none;}.d{fill:#707070;}</style></defs><g transform="translate(-280 -1189)"><g class="a" transform="translate(280 1189)"><path class="c" d="M 47.5 47.5 L 0.5 47.5 L 0.5 0.5 L 47.5 0.5 L 47.5 47.5 Z"/><path class="d" d="M 1 1 L 1 47 L 47 47 L 47 1 L 1 1 M 0 0 L 48 0 L 48 48 L 0 48 L 0 0 Z"/></g><g transform="translate(216.013 1094.74)"><path class="b" d="M88.91,124.83,111.5,111.384a.994.994,0,0,0,0-1.709L88.91,96.228a1.8,1.8,0,0,0-1.843,0L64.476,109.675a.992.992,0,0,0,0,1.709L87.067,124.83A1.8,1.8,0,0,0,88.91,124.83Z" transform="translate(0)"/><path class="b" d="M229.113,464.332a3.519,3.519,0,0,1-1.795-.493L213.1,455.375V467.5a1.728,1.728,0,0,0,.82,1.473l14.352,8.834a1.708,1.708,0,0,0,1.789,0l14.352-8.834a1.735,1.735,0,0,0,.82-1.473V455.311l-14.325,8.529A3.518,3.518,0,0,1,229.113,464.332ZM251.238,452.6a1.719,1.719,0,0,0-1.714,1.73v7.72a1.714,1.714,0,1,0,3.429,0v-7.72A1.723,1.723,0,0,0,251.238,452.6Z" transform="translate(-141.124 -337.52)"/></g></g></svg>