<svg xmlns="http://www.w3.org/2000/svg" width="438" height="79.666" viewBox="0 0 438 79.666"><g transform="translate(-119 -64)"><text transform="translate(222 93.833)" fill="#fff" font-size="20" font-family="SourceHanSansCN-Medium, Source Han Sans CN" font-weight="500"><tspan x="0" y="0">金叶劳模和工匠人才创新工作室联盟</tspan></text><text transform="translate(217 129.833)" fill="#fff" font-size="20" font-family="SourceHanSansCN-Regular, Source Han Sans CN" opacity="0.8"><tspan x="0" y="0">（河南中烟金叶工匠共传共享工作室）</tspan></text><g transform="translate(-380.551 -79)"><g transform="translate(499.551 143)"><path d="M576.111,184.984c-.364,1.158-.121,2.415-.579,3.56-.173.434-.281.9-.49,1.313a1.839,1.839,0,0,1-2.406.814,18.684,18.684,0,0,1-4.079-2.493c-1.781-1.319-3.486-2.735-5.264-4.057-1.64-1.219-3.215-2.525-4.84-3.765-1.959-1.5-3.922-2.988-5.792-4.595-1.441-1.239-3.029-2.284-4.527-3.448a48.681,48.681,0,0,0-4.817-3.273,26.352,26.352,0,0,0-4.283-2.155,8.171,8.171,0,0,0-6.315.291,16.162,16.162,0,0,0-3.929,2.422c-1.295,1.065-2.7,2.015-3.971,3.109-1.412,1.215-2.9,2.354-4.23,3.646-1.067,1.036-2.318,1.846-3.33,2.909-.8.836-1.729,1.5-2.571,2.268a42.953,42.953,0,0,1-3.278,2.831c-.826.609-1.559,1.345-2.328,2.031a.471.471,0,0,0-.2.456c.068.256.305.21.495.2,1.43-.039,2.86-.1,4.29-.124,1.129-.017,1.276.2,1.357,1.342.2,2.83,0,5.667.243,8.5.187,2.213.094,4.444.123,6.665.036,2.806.07,5.616.067,8.423a1.4,1.4,0,0,0,.773,1.314,35.337,35.337,0,0,0,6.559,3.079,39.887,39.887,0,0,0,11.839,2.447,68.685,68.685,0,0,0,9.639-.7,6.745,6.745,0,0,0,.927-.254,50.87,50.87,0,0,0,9.458-3.468,25.589,25.589,0,0,0,3.913-2.462,4.067,4.067,0,0,0-1.819.641,25.413,25.413,0,0,1-6.326,2.644,29.353,29.353,0,0,1-5.679,1.276,12.139,12.139,0,0,1-1.7.006c-.471-.011-.476-.384-.455-.7a15.008,15.008,0,0,1,.234-2.35c.627-2.737,1.657-5.175,4.372-6.606a20,20,0,0,1,6.333-1.9,57.693,57.693,0,0,0,7.78-1.389,15.82,15.82,0,0,0,4.891-2.536c.569-.425,1.112-.887,1.7-1.294.143-.1.294-.207.474-.1s.166.284.148.461a19.3,19.3,0,0,1-2.81,8.714,21.888,21.888,0,0,1-4.672,5.382,26.844,26.844,0,0,1-5.089,3.511c-2.821,1.337-5.512,3.012-8.655,3.55-1.071.184-2.071.686-3.132.78-1.438.128-2.812.718-4.283.548a1.388,1.388,0,0,0-.848.209h-6.231a.566.566,0,0,0-.44-.238,17.375,17.375,0,0,1-4.415-.622,34.808,34.808,0,0,1-7.677-2.469,42.871,42.871,0,0,1-7.938-4.521,44.34,44.34,0,0,1-5.7-5.025,37.973,37.973,0,0,1-7.429-11.575,38.367,38.367,0,0,1-2.669-9.206c-.213-1.485-.354-2.98-.527-4.47v-4.451c.5-1.185.326-2.471.529-3.7a50.555,50.555,0,0,1,1.36-5.418,33.411,33.411,0,0,1,1.742-4.641,38.181,38.181,0,0,1,3.872-6.746,42.115,42.115,0,0,1,4.445-5.111,36.22,36.22,0,0,1,13.822-8.965,33.562,33.562,0,0,1,4.714-1.435,31.435,31.435,0,0,1,6.845-.966,1.18,1.18,0,0,0,.351-.1h5.489c1.312.191,2.632.34,3.934.581a39.864,39.864,0,0,1,12.244,4.485,46.132,46.132,0,0,1,6.578,4.617,33.092,33.092,0,0,1,5.079,5.241,39.65,39.65,0,0,1,5.2,8.317,43.665,43.665,0,0,1,2.52,6.933,47.255,47.255,0,0,1,1,5.109,29.953,29.953,0,0,1,.27,3.75,2.489,2.489,0,0,0,.119,1.022Zm-69.877,6.129a7.3,7.3,0,0,1-1.9-.144,3.094,3.094,0,0,1-.673-5.307,12.515,12.515,0,0,0,1.051-.933c1.558-1.547,3.336-2.843,4.934-4.35.977-.921,2.087-1.722,3.109-2.611,2.437-2.118,4.852-4.26,7.292-6.375,1.859-1.612,3.715-3.228,5.623-4.781a37.9,37.9,0,0,1,5.23-3.477,10.6,10.6,0,0,1,9.814-.5c3.445,1.445,6.385,3.73,9.373,5.915,1.472,1.076,2.817,2.328,4.309,3.373,2,1.4,3.835,3.006,5.806,4.442,2.309,1.682,4.475,3.559,6.706,5.348,1.364,1.094,2.716,2.205,4.152,3.206.332.231.541.834.966.676.4-.149.122-.713.168-1.084a24.511,24.511,0,0,0-.28-6.843,35.908,35.908,0,0,0-1.323-5.53,39.625,39.625,0,0,0-2.812-6.355,37.76,37.76,0,0,0-3.1-4.591,26.814,26.814,0,0,0-3.435-3.871,41.493,41.493,0,0,0-5.33-4.206,38.118,38.118,0,0,0-6.87-3.745,33.651,33.651,0,0,0-5.712-1.737,34.791,34.791,0,0,0-5.627-.77,33.574,33.574,0,0,0-10.483,1.065,22.548,22.548,0,0,0-4.835,1.585,56.556,56.556,0,0,0-5.782,3.113c-1.079.773-2.2,1.509-3.19,2.382A46.418,46.418,0,0,0,509.265,159c-1.132,1.273-2.059,2.684-3.091,4.022a30.784,30.784,0,0,0-2.166,3.69,29.375,29.375,0,0,0-2.669,7.006,31.318,31.318,0,0,0-.871,4.178,30.025,30.025,0,0,0-.391,4.473,42.334,42.334,0,0,0,.806,7.858,37.135,37.135,0,0,0,2.73,8.016,34.316,34.316,0,0,0,4.654,7.187,21.215,21.215,0,0,0,2.557,2.772c.159.136.3.378.564.224.2-.12.164-.351.144-.542-.264-2.5-.14-5.022-.248-7.531a22.875,22.875,0,0,1-.092-3.107c.181-1.906-.157-3.792-.079-5.688.017-.421-.211-.5-.6-.543A32.086,32.086,0,0,0,506.234,191.113Z" transform="translate(-496 -143)" fill="#fff"/><path d="M677.736,399.851a9.659,9.659,0,0,0-6.872,3.239,9.228,9.228,0,0,0-2.3,5.479,7.071,7.071,0,0,0,.1,2.117c.085.47-.145.664-.589.57-2.892-.614-5.826-1.071-8.36-2.794-1.406-.956-1.708-1.463-1.423-3.12.008-.049.013-.1.024-.146.126-.526.1-1.186.42-1.54s.979-.054,1.49-.093a4.6,4.6,0,0,0,4.256-5.279,4.366,4.366,0,0,0-.891-1.936.736.736,0,0,1,.128-1.1c.811-.762,1.661-1.472,2.518-2.18a.894.894,0,0,1,1.474.1,4.121,4.121,0,0,0,3.182,1.343,4.589,4.589,0,0,0,4.325-3.6c.225-1.363.253-1.3,1.6-1.456a25.4,25.4,0,0,1,2.729.05c.641-.008,1.008.282,1.049,1.036a4.5,4.5,0,0,0,5.74,3.737,4.036,4.036,0,0,0,2.035-1.285c.215-.3.5-.3.841-.084a16.5,16.5,0,0,1,2.932,2.348.868.868,0,0,1,.1,1.322,4.443,4.443,0,0,0,3.472,7.016c1.4.037,1.619.2,1.926,1.578a7.835,7.835,0,0,1,.164,1.468,1.753,1.753,0,0,1-.679,1.407,10.374,10.374,0,0,1-4.052,2.042c-.892.288-1.8.532-2.681.846-.756.269-1.562.064-2.324.327-.342.118-.324-.234-.3-.5a12.515,12.515,0,0,0-.162-3.028,8.882,8.882,0,0,0-2.742-5.115A9.839,9.839,0,0,0,677.736,399.851Z" transform="translate(-634.131 -352.854)" fill="#fff"/><path d="M655.64,549.2c2.751,2.36,6.041,3.7,9.483,4.922a1.926,1.926,0,0,1-1.343.543,25.816,25.816,0,0,1-9.135-1.2,14.913,14.913,0,0,1-8.271-7.641,24.669,24.669,0,0,1-2.491-7.234A20.977,20.977,0,0,0,646,540.029a19.506,19.506,0,0,0,4.383,1.273c1.889.376,3.811.37,5.7.62a13.521,13.521,0,0,1,7.792,3.215,10.558,10.558,0,0,1,3.34,6.207c.008.049.012.1.015.147.027.493.584,1.091.065,1.441a2.61,2.61,0,0,1-1.945.072,40.843,40.843,0,0,1-6.442-2.342C657.795,550.232,656.78,549.583,655.64,549.2Z" transform="translate(-621.942 -479.911)" fill="#fff"/><path d="M761.614,492.758c-.6,1.186-3.517,1.759-5.332,1.176a6.192,6.192,0,0,1-4.565-7.168,5.978,5.978,0,0,1,6.066-5.238,6.2,6.2,0,0,1,6.426,5.152,6.027,6.027,0,0,1-2.352,6.034c.939-1.007.151-1.484-.3-2.01-1.14-1.326-2.074-2.818-3.3-4.075-.307-.315-.128-.561.179-.786.893-.655,1.776-1.326,2.659-1.995.186-.141.5-.25.36-.556-.121-.268-.425-.208-.666-.195a8.664,8.664,0,0,0-3.681.958,21.059,21.059,0,0,0-4.568,2.923,1.357,1.357,0,0,0-.513,1.3,2.276,2.276,0,0,0,1.018,1.4c.175.128.376-.008.539-.134.643-.5,1.293-.983,1.928-1.49.357-.284.659-.3.942.088q1.177,1.615,2.358,3.227c.394.536.8,1.062,1.2,1.593a.549.549,0,0,0,.78.165C761.008,493.019,761.233,492.93,761.614,492.758Z" transform="translate(-713.697 -431.306)" fill="#fff"/></g></g></g></svg>