<svg xmlns="http://www.w3.org/2000/svg" xmlns:xlink="http://www.w3.org/1999/xlink" width="48" height="48" viewBox="0 0 48 48"><defs><style>.a{fill:#5baef4;}.b{fill:#5197ea;}.c{fill:#fff;}.d{filter:url(#a);}</style><filter id="a" x="8.092" y="8.264" width="33.816" height="33.471" filterUnits="userSpaceOnUse"><feOffset dy="1" input="SourceAlpha"/><feGaussianBlur stdDeviation="1" result="b"/><feFlood flood-opacity="0.102"/><feComposite operator="in" in2="b"/><feComposite in="SourceGraphic"/></filter></defs><g transform="translate(-32 -284)"><rect class="a" width="48" height="48" rx="8" transform="translate(32 284)"/><path class="b" d="M32.94,11.136,48,24V40a8,8,0,0,1-8,8H24L11.791,36.355,16.2,15.021Z" transform="translate(32 284)"/><g class="d" transform="matrix(1, 0, 0, 1, 32, 284)"><path class="c" d="M241.221,10.056c1.168-.353,2.179-.669,2.336-.718a1.17,1.17,0,0,0,.559-.316l6.339-6.339V6.711a3.344,3.344,0,0,1-3.346,3.346ZM240,4.922,250.456-5.529l1.265-1.265a1.327,1.327,0,0,1,.943-.393,1.329,1.329,0,0,1,.943.393l1.363,1.35a1.344,1.344,0,0,1,0,1.9L243.253,8.171c-.048,0-6.169,1.885-6.2,1.885C237.049,9.862,240,4.946,240,4.922Zm-9.113,5.134a3.344,3.344,0,0,1-3.346-3.346v-20.78a3.343,3.343,0,0,1,3.346-3.346H247.11a3.344,3.344,0,0,1,3.346,3.346v6.825l-11.3,11.3a1.617,1.617,0,0,0-.219.28l-.292.487c-1.946,3.284-2.713,4.562-2.81,5.231Zm2.522-13.544a1.216,1.216,0,0,0,1.216,1.216H238.5a1.216,1.216,0,0,0,1.217-1.216A1.216,1.216,0,0,0,238.5-4.7H234.63A1.216,1.216,0,0,0,233.414-3.488Zm0-7.16a1.216,1.216,0,0,0,1.216,1.216h8.739a1.216,1.216,0,0,0,1.216-1.216,1.216,1.216,0,0,0-1.216-1.217H234.63A1.216,1.216,0,0,0,233.414-10.648Z" transform="translate(-216.45 27.68)"/></g></g></svg>