<svg xmlns="http://www.w3.org/2000/svg" xmlns:xlink="http://www.w3.org/1999/xlink" width="49" height="49" viewBox="0 0 49 49"><defs><style>.a{fill:#f9ce3b;}.a,.c{stroke:rgba(0,0,0,0);stroke-miterlimit:10;}.b{fill:#f4a330;}.c{fill:#fff;}.d{filter:url(#a);}</style><filter id="a" x="3" y="8.999" width="42.039" height="33.315" filterUnits="userSpaceOnUse"><feOffset dy="1" input="SourceAlpha"/><feGaussianBlur stdDeviation="1" result="b"/><feFlood flood-opacity="0.102"/><feComposite operator="in" in2="b"/><feComposite in="SourceGraphic"/></filter></defs><g transform="translate(-294.5 -283.5)"><rect class="a" width="48" height="48" rx="8" transform="translate(295 284)"/><path class="b" d="M32.214,13.634,48,24V40a8,8,0,0,1-8,8H24L7.033,34.445l6.435-6.675L20.52,16.624,21.6,14.882,24.957,10.7l9.327,9.745Z" transform="translate(295 284)"/><g class="d" transform="matrix(1, 0, 0, 1, 294.5, 283.5)"><path class="c" d="M35.039,83.059A4.511,4.511,0,0,1,33.9,86.09a5.145,5.145,0,0,1-1.261,1.034,4.535,4.535,0,0,1-1.559.561l.035.035h-24a3.174,3.174,0,0,1-.561.035,6.266,6.266,0,0,1-2.558-.526A6.8,6.8,0,0,1,1.91,85.81a6.553,6.553,0,0,1-1.4-2.085,6.693,6.693,0,0,1,0-5.116,6.553,6.553,0,0,1,1.4-2.085,6.8,6.8,0,0,1,2.085-1.419,6.266,6.266,0,0,1,2.558-.526h.035a4.25,4.25,0,0,1-.035-.526v-.561A11.793,11.793,0,0,1,7.5,68.8a11.968,11.968,0,0,1,2.593-3.837,12.38,12.38,0,0,1,3.837-2.575,11.668,11.668,0,0,1,4.678-.946,11.793,11.793,0,0,1,4.7.946,12.324,12.324,0,0,1,3.854,2.575A11.968,11.968,0,0,1,29.748,68.8a11.793,11.793,0,0,1,.946,4.7,11.52,11.52,0,0,1-.28,2.54,13.035,13.035,0,0,1-.771,2.365,3.483,3.483,0,0,1,.368-.053q.193-.017.368-.018a4.613,4.613,0,0,1,3.294,1.384,4.915,4.915,0,0,1,1,1.507A4.62,4.62,0,0,1,35.039,83.059ZM22.776,78.89a1.713,1.713,0,0,0,.911-.158q.21-.158-.28-.753a15.508,15.508,0,0,1-1.086-1.647q-.6-1.016-1.244-2.067T19.762,72.3a5.43,5.43,0,0,0-1.3-1.331,2.44,2.44,0,0,0-.929-.491,1.373,1.373,0,0,0-.858.42,7.6,7.6,0,0,0-1.226,1.331q-.6.806-1.209,1.717t-1.226,1.787a13.47,13.47,0,0,1-1.244,1.542q-.631.631-.456,1.121t.876.491h.561q.315,0,.683.018t.718.018h.6a.682.682,0,0,1,.631.333,1.972,1.972,0,0,1,.14.823q0,.6-.018,1.051t-.018.876q0,.42-.018.876t-.018,1.051a2.86,2.86,0,0,0,.053.526,1.674,1.674,0,0,0,.193.526,1.077,1.077,0,0,0,.42.4,1.5,1.5,0,0,0,.736.158h.806q.315,0,.946.035.841,0,.964-.42a5.2,5.2,0,0,0,.123-1.331q0-.806.018-1.454t.018-1.77a3.831,3.831,0,0,1,.158-1.244.651.651,0,0,1,.683-.438q.385,0,1.1-.018t1.1-.018Z" transform="translate(6.5 -49.94)"/></g></g></svg>