<svg xmlns="http://www.w3.org/2000/svg" width="16" height="16" viewBox="0 0 16 16">
  <defs>
    <style>
      .cls-1 {
        opacity: 0;
      }

      .cls-2 {
        opacity: 0.65;
      }
    </style>
  </defs>
  <g id="ykt_icon_kclb_nor" transform="translate(-507 -280)">
    <rect id="矩形_2094" data-name="矩形 2094" class="cls-1" width="16" height="16" transform="translate(507 280)"/>
    <g id="组_5688" data-name="组 5688" class="cls-2" transform="translate(461 228.001)">
      <path id="路径_2865" data-name="路径 2865" d="M55.759,54.332a1.784,1.784,0,0,1,1.715,1.015H57.8a1.48,1.48,0,0,1,1.479,1.422v6.4a1.48,1.48,0,0,1-1.422,1.479h-.383a1.784,1.784,0,0,1-1.714,1.015l-6.078-.351A1.784,1.784,0,0,1,48,63.534v-7.07a1.784,1.784,0,0,1,1.681-1.781Zm.1.922h-.049l-6.078.351a.859.859,0,0,0-.809.857v7.07a.859.859,0,0,0,.809.857l6.079.351h.049a.859.859,0,0,0,.859-.859V56.064a.859.859,0,0,0-.907-.808Zm1.785,8.55H57.8a.634.634,0,0,0,.633-.591l0-.043V56.827a.634.634,0,0,0-.591-.633l-.043,0h-.152Z" transform="translate(0 0)"/>
      <path id="路径_2866" data-name="路径 2866" d="M309.455,361.969a.925.925,0,0,0-.122.459v1.808a.925.925,0,0,0,1.434.772l1.469-.969a.925.925,0,0,0-.05-1.575l-1.469-.839a.925.925,0,0,0-1.235.3Zm.869.344,1.469.839a.132.132,0,0,1,.007.225l-1.469.968a.132.132,0,0,1-.2-.11v-1.808a.132.132,0,0,1,.2-.115Z" transform="translate(-258.096 -303.369)"/>
    </g>
  </g>
</svg>
