<svg xmlns="http://www.w3.org/2000/svg" width="16" height="16" viewBox="0 0 16 16">
  <defs>
    <style>
      .cls-1 {
        opacity: 0;
      }

      .cls-2 {
        stroke: rgba(0,0,0,0);
        stroke-miterlimit: 10;
        opacity: 0.65;
      }
    </style>
  </defs>
  <g id="nrgl_icon_fmyy_nor" transform="translate(-279 -233)">
    <rect id="矩形_2088" data-name="矩形 2088" class="cls-1" width="16" height="16" transform="translate(279 233)"/>
    <path id="路径_5783" data-name="路径 5783" class="cls-2" d="M115.525,95.024h-2.563a.961.961,0,0,0-.961.961v3.589a.961.961,0,0,0,.961.961h2.563a.961.961,0,0,0,.961-.961V95.986A.961.961,0,0,0,115.525,95.024Zm-2.563.9h2.563a.064.064,0,0,1,.064.064v3.589a.064.064,0,0,1-.064.064h-2.563a.064.064,0,0,1-.064-.064V95.986A.064.064,0,0,1,112.961,95.922Zm2.563-5.255h-2.563a.961.961,0,0,0-.961.961v1.794a.961.961,0,0,0,.961.961h2.563a.961.961,0,0,0,.961-.961V91.628A.961.961,0,0,0,115.525,90.667Zm-2.563.9h2.563a.064.064,0,0,1,.064.064v1.794a.064.064,0,0,1-.064.064h-2.563a.064.064,0,0,1-.064-.064V91.628A.064.064,0,0,1,112.961,91.564Zm7.69-.9h-2.563a.961.961,0,0,0-.961.961v3.589a.961.961,0,0,0,.961.961h2.563a.961.961,0,0,0,.961-.961V91.628A.961.961,0,0,0,120.651,90.667Zm-2.563.9h2.563a.064.064,0,0,1,.064.064v3.589a.064.064,0,0,1-.064.064h-2.563a.064.064,0,0,1-.064-.064V91.628A.064.064,0,0,1,118.088,91.564Zm2.563,5.255h-2.563a.961.961,0,0,0-.961.961v1.794a.961.961,0,0,0,.961.961h2.563a.961.961,0,0,0,.961-.961V97.78A.961.961,0,0,0,120.651,96.819Zm-2.563.9h2.563a.064.064,0,0,1,.064.064v1.794a.064.064,0,0,1-.064.064h-2.563a.064.064,0,0,1-.064-.064V97.78A.064.064,0,0,1,118.088,97.716Z" transform="translate(170 145.333)"/>
  </g>
</svg>
