<svg id="icon-test-5" xmlns="http://www.w3.org/2000/svg" width="12.808" height="12.171" viewBox="0 0 12.808 12.171">
  <defs>
    <style>
      .cls-1 {
        fill: rgba(0,0,0,0.45);
      }
    </style>
  </defs>
  <path id="路径_454" data-name="路径 454" class="cls-1" d="M108.315,128H96.493a.493.493,0,0,0-.493.493v8.867a.493.493,0,0,0,.493.493h4.433v-.985H96.985v-7.882h10.837v7.882h-3.941a.493.493,0,0,0-.349.144l-2.463,2.463.7.7,2.319-2.319h4.23a.493.493,0,0,0,.493-.493v-8.867a.493.493,0,0,0-.493-.493" transform="translate(-96 -128)"/>
  <path id="路径_455" data-name="路径 455" class="cls-1" d="M244.91,399.5a.739.739,0,1,0-.739.72.739.739,0,0,0,.739-.72m-4.926,0a.739.739,0,1,0,.739-.719.739.739,0,0,0-.739.719m8.374,0a.739.739,0,1,0-.739.72.739.739,0,0,0,.739-.72" transform="translate(-237.767 -394.577)"/>
</svg>
