<svg id="组_6284" data-name="组 6284" xmlns="http://www.w3.org/2000/svg" width="15.739" height="16" viewBox="0 0 15.739 16">
  <defs>
    <style>
      .cls-1 {
        fill: #4ecb73;
      }
    </style>
  </defs>
  <path id="路径_6206" data-name="路径 6206" class="cls-1" d="M226.278,27.252h.393a.532.532,0,0,0,.551-.525V24.551a.538.538,0,0,0-.551-.551h-.393a.538.538,0,0,0-.551.551V26.7A.523.523,0,0,0,226.278,27.252Zm-8.236,0h.393a.532.532,0,0,0,.551-.525V24.551a.538.538,0,0,0-.551-.551h-.393a.538.538,0,0,0-.551.551V26.7A.523.523,0,0,0,218.042,27.252Z" transform="translate(-214.501 -24)"/>
  <path id="路径_6207" data-name="路径 6207" class="cls-1" d="M49.836,134.4H48.708v.918a1.272,1.272,0,0,1-1.311,1.259H47a1.288,1.288,0,0,1-1.311-1.259V134.4H40.446v.918a1.272,1.272,0,0,1-1.311,1.259h-.393a1.288,1.288,0,0,1-1.311-1.259V134.4h-1.1a1.1,1.1,0,0,0-1.128,1.1v11.987a1.1,1.1,0,0,0,1.128,1.1H49.784a1.137,1.137,0,0,0,1.154-1.1V135.5A1.061,1.061,0,0,0,49.836,134.4Zm-4.17,8.63v.866a31.3,31.3,0,0,1-2.02,2.544l-1-.551a19.651,19.651,0,0,0,1.548-1.915H40.184V143h5.482Zm-3.646-1.311.813-.551c.42.446.787.866,1.049,1.207l-.892.577C42.57,142.426,42.256,142.007,42.02,141.718Zm3.961,1a8.214,8.214,0,0,1-2.964-2.361,9.144,9.144,0,0,1-3.1,2.439,4.827,4.827,0,0,0-.682-.892,7.689,7.689,0,0,0,3.226-2.544h1.416l-.236.236a7.109,7.109,0,0,0,2.964,2.23A9.273,9.273,0,0,1,45.98,142.715Z" transform="translate(-35.2 -132.59)"/>
</svg>
