<svg xmlns="http://www.w3.org/2000/svg" width="16" height="16" viewBox="0 0 16 16">
  <defs>
    <style>
      .cls-1 {
        opacity: 0;
      }

      .cls-2 {
        opacity: 0.65;
      }
    </style>
  </defs>
  <g id="nrgl_icon_jdz_nor" transform="translate(-279 -328)">
    <rect id="矩形_2090" data-name="矩形 2090" class="cls-1" width="16" height="16" transform="translate(279 328)"/>
    <g id="组_5684" data-name="组 5684" class="cls-2" transform="translate(281 331)">
      <path id="路径_2841" data-name="路径 2841" d="M29.967,69.333a5.314,5.314,0,0,1,4.377,2.3l.046.068.025,0a1.672,1.672,0,0,1,1.371.854l.023.055a1.7,1.7,0,0,1-.5,1.693l-.034.04,0,.053,0,.128,0,.128a5.319,5.319,0,0,1-9.551,3.223l-.01-.013-.042-.008a1.588,1.588,0,0,1-1.22-.825l.021.044-.008-.016-.013-.028-.023-.055a1.5,1.5,0,0,1,.27-1.393l.014-.021-.012-.072a5.335,5.335,0,0,1-.064-.694l0-.14A5.319,5.319,0,0,1,29.967,69.333Zm4.389,5.86-.1.077-.118.086-.146.1-.151.1q-.191.127-.4.252l-.167.1-.171.1-.175.1-.179.1-.091.047-.185.094-.189.093-.192.092-.1.045-.2.089q-.15.066-.3.131l-.206.085-.208.083-.211.081-.21.078-.21.074-.208.071-.1.034-.207.066-.1.032-.2.061-.2.057-.1.027-.2.052-.2.049-.2.045-.193.041-.191.038-.188.034-.185.031-.182.027-.179.023-.176.019-.087.008-.171.014-.167.01a4.42,4.42,0,0,0,7.347-2.744ZM29.967,70.23a4.425,4.425,0,0,0-4.326,5.343.449.449,0,0,1-.085.369c-.256.327-.331.571-.278.71s.307.288.767.355a.435.435,0,0,1,.1.028l.115.009.061,0,.127,0h.2l.141,0,.146-.007.151-.01.156-.014L27.407,77l.165-.021.169-.024.086-.013L28,76.914l.179-.033.091-.018.184-.038.093-.021.189-.043.192-.047.1-.025.2-.052.2-.056.2-.059.2-.063.2-.067.206-.071.207-.074.1-.039.21-.08.208-.083.2-.085.2-.087.1-.044.2-.09.191-.091.187-.093.183-.094.178-.095.174-.1.169-.1.164-.1.159-.1.153-.1.148-.1.143-.1.069-.048.134-.1.128-.1q.157-.119.294-.236l.107-.092.1-.091.048-.045.038-.038a.448.448,0,0,1,.056-.073c.408-.431.549-.769.481-.945s-.358-.314-.893-.371a.449.449,0,0,1-.335-.212,4.418,4.418,0,0,0-3.775-2.118Z" transform="translate(-24.364 -69.333)"/>
      <path id="路径_2842" data-name="路径 2842" d="M491.179,277.846m-.513,0a.513.513,0,1,0,.513-.513A.513.513,0,0,0,490.667,277.846Z" transform="translate(-485.064 -274.834)"/>
    </g>
  </g>
</svg>
