<svg xmlns="http://www.w3.org/2000/svg" width="16" height="16" viewBox="0 0 16 16"><defs><style>.cls-1{opacity:0}.cls-2{opacity:.65}</style></defs><g id="jfgl_icon_jfsq_nor" transform="translate(-927 -280)"><rect id="矩形_56" width="16" height="16" class="cls-1" data-name="矩形 56" transform="translate(927 280)"/><g id="组_2493" class="cls-2" data-name="组 2493" transform="translate(844.388 218.457)"><path id="路径_2889" d="M93.252,64a2.639,2.639,0,0,1,2.639,2.639v5.807a2.639,2.639,0,0,1-2.639,2.639H87.973a2.639,2.639,0,0,1-2.639-2.639V66.639A2.639,2.639,0,0,1,87.973,64Zm0,.924H87.973a1.716,1.716,0,0,0-1.715,1.654v5.868a1.716,1.716,0,0,0,1.654,1.715h5.34a1.716,1.716,0,0,0,1.715-1.654V66.639a1.716,1.716,0,0,0-1.654-1.715Z" data-name="路径 2889" transform="translate(0)"/><path id="路径_2890" d="M329.388,293.333a.462.462,0,0,1,.038.922l-.038,0h-3.7a.462.462,0,0,1-.038-.922l.038,0Zm-.352,2.142a.462.462,0,0,1,.729.566l-.026.033-2.16,2.533a.462.462,0,0,1-.619.077l-.033-.026-1.536-1.319a.462.462,0,0,1,.569-.727l.033.026,1.184,1.017,1.859-2.18Z" data-name="路径 2890" transform="translate(-236.928 -226.496)"/></g></g></svg>