<svg xmlns="http://www.w3.org/2000/svg" width="16" height="16" viewBox="0 0 16 16"><defs><style>.cls-1{opacity:0}.cls-2{opacity:.65}</style></defs><g id="jfgl_icon_jfsp_nor" transform="translate(-927 -329)"><rect id="矩形_1833" width="16" height="16" class="cls-1" data-name="矩形 1833" transform="translate(927 329)"/><g id="组_2435" class="cls-2" data-name="组 2435" transform="translate(818 283.001)"><path id="路径_2863" d="M395.59,765.867a.451.451,0,0,1,.041.9l-.041,0h-2.534a.451.451,0,0,1-.041-.9l.041,0Z" data-name="路径 2863" transform="translate(-276.904 -708.394)"/><path id="路径_2864" d="M113.95,51.328a3.312,3.312,0,0,0,.941,2.316,1.285,1.285,0,0,1,.385.89v.242a.584.584,0,0,1-.584.584h-1.01A1.682,1.682,0,0,0,112,57.042v1.582a1.682,1.682,0,0,0,1.682,1.682h7.193a1.682,1.682,0,0,0,1.682-1.682V57.042a1.682,1.682,0,0,0-1.682-1.682h-1.009a.584.584,0,0,1-.584-.584v-.246a1.274,1.274,0,0,1,.383-.883,3.328,3.328,0,1,0-5.715-2.318Zm3.6-2.329a2.358,2.358,0,0,1,2.06,2.063,2.329,2.329,0,0,1-.592,1.836l-.057.061a2.255,2.255,0,0,0-.663,1.571v.246a1.57,1.57,0,0,0,1.57,1.57h1.009a.7.7,0,0,1,.7.7v1.582a.7.7,0,0,1-.7.7h-7.193a.7.7,0,0,1-.7-.7V57.042a.7.7,0,0,1,.7-.7h1.01a1.57,1.57,0,0,0,1.57-1.57v-.242a2.254,2.254,0,0,0-.6-1.511l-.062-.066A2.342,2.342,0,0,1,117.548,49Z" data-name="路径 2864" transform="translate(0)"/></g></g></svg>