<svg xmlns="http://www.w3.org/2000/svg" width="32" height="32" viewBox="0 0 32 32"><defs><style>.cls-1{opacity:0}.cls-2{fill:#1890fa}</style></defs><g id="icon_jdz" transform="translate(-243 -328)"><rect id="矩形_56" width="32" height="32" class="cls-1" data-name="矩形 56" transform="translate(243 328)"/><g id="组_2320" data-name="组 2320" transform="translate(246.974 333.961)"><path id="路径_2841" d="M35.5,69.333a10.559,10.559,0,0,1,8.7,4.562l.092.136.049.008a3.323,3.323,0,0,1,2.723,1.7l.045.108c.4,1.041,0,2.191-.988,3.363l-.068.079.007.106.009.254,0,.255a10.569,10.569,0,0,1-18.976,6.4l-.019-.026-.084-.017a3.155,3.155,0,0,1-2.424-1.64l.041.087-.015-.032-.025-.055-.045-.109a2.982,2.982,0,0,1,.537-2.769l.029-.042-.024-.143a10.6,10.6,0,0,1-.126-1.38l0-.279A10.568,10.568,0,0,1,35.5,69.333Zm8.721,11.643-.2.154-.234.172-.29.2-.3.2q-.38.253-.79.5l-.332.2-.34.2-.348.194-.357.191-.181.094-.368.187-.375.184-.382.182-.194.09-.393.177q-.3.131-.6.26l-.408.168-.414.165-.419.161-.418.155-.417.148-.414.141-.206.068-.411.131-.2.063-.406.121-.4.114-.2.054-.4.1-.392.1-.389.089q-.193.043-.383.082l-.379.075-.373.068-.368.061-.362.053c-.12.017-.238.032-.357.046l-.349.039-.172.016-.339.027-.333.019a8.783,8.783,0,0,0,14.6-5.452ZM35.5,71.116A8.793,8.793,0,0,0,26.9,81.732a.891.891,0,0,1-.17.734c-.508.65-.657,1.135-.552,1.41.114.3.609.572,1.523.705a.865.865,0,0,1,.206.056l.229.018.121.007.252.009.13,0h.269l.28-.008.29-.014.3-.021.31-.028.319-.034.328-.041.337-.048.172-.026L31.6,84.4l.356-.065.181-.035.366-.075.185-.041.376-.086L33.441,84l.193-.049.389-.1.394-.112.4-.118.4-.126.406-.133.409-.141.412-.148.207-.077.417-.16.414-.166.406-.17.4-.173.2-.088.388-.178c.128-.06.255-.12.38-.181l.372-.184.363-.186.354-.188.345-.189.335-.191.326-.192.316-.192.3-.193.295-.193.284-.192.138-.1.266-.191.255-.19q.312-.237.585-.468L44,78.85l.2-.181.095-.089.075-.075a.89.89,0,0,1,.112-.145c.81-.857,1.09-1.527.956-1.877-.125-.326-.712-.624-1.774-.737A.891.891,0,0,1,43,75.325a8.779,8.779,0,0,0-7.5-4.209Z" class="cls-2" data-name="路径 2841" transform="translate(-24.364 -69.333)"/><path id="路径_2842" d="M491.685,278.352m-1.019,0a1.019,1.019,0,1,0,1.019-1.019A1.019,1.019,0,0,0,490.667,278.352Z" class="cls-2" data-name="路径 2842" transform="translate(-479.534 -272.367)"/></g></g></svg>