<svg xmlns="http://www.w3.org/2000/svg" width="32" height="32" viewBox="0 0 32 32">
  <defs>
    <style>
      .cls-1 {
        opacity: 0;
      }

      .cls-2 {
        fill: #1890ff;
      }
    </style>
  </defs>
  <g id="icon_jlzx" transform="translate(-732 -328)">
    <rect id="矩形_2096" data-name="矩形 2096" class="cls-1" width="32" height="32" transform="translate(732 328)"/>
    <g id="组_6279" data-name="组 6279" transform="translate(665.764 240.875)">
      <path id="路径_6199" data-name="路径 6199" class="cls-2" d="M267.411,282.667a1.088,1.088,0,0,1,.09,2.172l-.09,0h-4.974a1.088,1.088,0,0,1-.09-2.172l.09,0Z" transform="translate(-186.42 -186.404)"/>
      <path id="路径_6200" data-name="路径 6200" class="cls-2" d="M89.7,90.667H74.774a5.44,5.44,0,0,0-5.44,5.44v11.811l0,.16a5.44,5.44,0,0,0,5.438,5.28h.657l0,.028a2.332,2.332,0,0,0,.331,1.069l.068.108a2.332,2.332,0,0,0,3.132.684l3.13-1.889h7.6a5.44,5.44,0,0,0,5.44-5.44V96.107A5.44,5.44,0,0,0,89.7,90.667ZM74.774,92.843H89.7a3.264,3.264,0,0,1,3.264,3.264v11.811a3.264,3.264,0,0,1-3.264,3.264h-7.9a1.088,1.088,0,0,0-.562.157l-3.39,2.046a.155.155,0,0,1-.236-.124l-.061-1.053a1.088,1.088,0,0,0-1.086-1.025H74.774a3.264,3.264,0,0,1-3.264-3.264V96.107A3.264,3.264,0,0,1,74.774,92.843Z"/>
    </g>
  </g>
</svg>
