<svg xmlns="http://www.w3.org/2000/svg" width="48.001" height="48" viewBox="0 0 48.001 48"><defs><style>.a{fill:#fff;stroke:#707070;opacity:0;}.b{fill:#389efa;}.c{stroke:none;}.d{fill:none;}</style></defs><g transform="translate(-280 -1189)"><g class="a" transform="translate(280 1189)"><rect class="c" width="48" height="48"/><rect class="d" x="0.5" y="0.5" width="47" height="47"/></g><g transform="translate(160.909 1017.603)"><path class="b" d="M151.142,199.129V178.55a3.756,3.756,0,0,0-3.753-3.753H122.844a3.756,3.756,0,0,0-3.753,3.753v20.585a3.756,3.756,0,0,0,3.753,3.753h3.046v3.353a1.877,1.877,0,0,0,2.977,1.52l6.718-4.879h11.8A3.756,3.756,0,0,0,151.142,199.129Z" transform="translate(0 0)"/><path class="b" d="M484.944,308.941H474.892v19.165a2.5,2.5,0,0,1-2.5,2.5H461.619v2.483a3.756,3.756,0,0,0,3.753,3.753H471l6.693,4.754a1.878,1.878,0,0,0,1.088.35,1.835,1.835,0,0,0,.945-.256,1.9,1.9,0,0,0,.932-1.658v-2.921h4.291a3.756,3.756,0,0,0,3.753-3.753V312.694A3.756,3.756,0,0,0,484.944,308.941Z" transform="translate(-321.605 -125.95)"/></g></g></svg>