<svg xmlns="http://www.w3.org/2000/svg" width="48.002" height="48" viewBox="0 0 48.002 48">
  <defs>
    <style>
      .cls-1 {
        fill: #fff;
        stroke: #707070;
        opacity: 0;
      }

      .cls-2 {
        fill: #389efa;
      }

      .cls-3 {
        stroke: none;
      }

      .cls-4 {
        fill: none;
      }
    </style>
  </defs>
  <g id="icon_网上练兵" transform="translate(-279.998 -1189)">
    <g id="矩形_2927" data-name="矩形 2927" class="cls-1" transform="translate(280 1189)">
      <rect class="cls-3" width="48" height="48"/>
      <rect class="cls-4" x="0.5" y="0.5" width="47" height="47"/>
    </g>
    <g id="组_6303" data-name="组 6303" transform="translate(194.665 1047.146)">
      <path id="路径_6225" data-name="路径 6225" class="cls-2" d="M545.452,244.053l-13.826,19.893.145,4.447v.024a1.2,1.2,0,0,0,1.209,1.209,1.216,1.216,0,0,0,.653-.193c-.048.024-.121.073-.169.1l4.157-1.378,13.826-19.917ZM532.134,267.547Zm.6-.314a.823.823,0,0,1,.242-.024A.746.746,0,0,0,532.738,267.233Zm-.435.169a.084.084,0,0,0,.048-.024A.084.084,0,0,1,532.3,267.4Zm.193-.121a.218.218,0,0,1,.121-.024A.181.181,0,0,1,532.5,267.281Zm1.6.653a1.231,1.231,0,0,0-.653-.653A1.319,1.319,0,0,1,534.092,267.934Zm-.29,1.354c-.024.024-.073.048-.1.1C533.729,269.36,533.754,269.312,533.8,269.288Zm.048-.048c.048-.048.073-.1.121-.145C533.923,269.143,533.9,269.191,533.85,269.239Zm.218-.338a.39.39,0,0,1-.1.169A.39.39,0,0,0,534.068,268.9Zm.1-.266a.669.669,0,0,0,.024-.218C534.189,268.49,534.165,268.563,534.165,268.635Zm-.073.193c.024-.048.024-.1.048-.145A.344.344,0,0,1,534.092,268.828Z" transform="translate(-421.011 -93.379)"/>
      <path id="路径_6226" data-name="路径 6226" class="cls-2" d="M548.959,662.67l-.193-.484c-.024.024-.048.024-.073.048Zm.314.87h0l-.072-.266Z" transform="translate(-437.11 -487.825)"/>
      <path id="路径_6227" data-name="路径 6227" class="cls-2" d="M117.843,176.368l-4.737,1.571a3.062,3.062,0,0,1-1.136.218,3.136,3.136,0,0,1-3.142-3.142l-.169-5.052,15.3-22,.024.024.459-.653a2.9,2.9,0,0,0-2.828-2.272H88.234a2.909,2.909,0,0,0-2.9,2.9V183.74a2.909,2.909,0,0,0,2.9,2.9H121.59a2.909,2.909,0,0,0,2.9-2.9V166.8ZM92.1,152.318h19.337a1.934,1.934,0,1,1,0,3.867H92.1a1.934,1.934,0,1,1,0-3.867Zm10.635,27.071H92.1a1.934,1.934,0,1,1,0-3.867h10.635a1.934,1.934,0,0,1,0,3.867Zm3.867-11.6H92.1a1.934,1.934,0,0,1,0-3.867h14.5a1.934,1.934,0,1,1,0,3.867ZM111.97,175.038Zm20.98-25.355-4.52-3.142a.885.885,0,0,0-1.233.218l-.1.145-1.233,1.764,5.994,4.133.8-1.136.1-.121.242-.363.193-.29A.887.887,0,0,0,132.95,149.683Z"/>
    </g>
  </g>
</svg>
