<svg xmlns="http://www.w3.org/2000/svg" width="32" height="32" viewBox="0 0 32 32"><defs><style>.cls-1{opacity:0}.cls-2{fill:#1890ff}</style></defs><g id="icon_wslb" transform="translate(-732 -328)"><rect id="矩形_2096" width="32" height="32" class="cls-1" data-name="矩形 2096" transform="translate(732 328)"/><g id="组_6278" data-name="组 6278" transform="translate(650.801 267.541)"><path id="路径_6197" d="M103.132,64a5.933,5.933,0,0,1,5.933,5.933V82.985a5.933,5.933,0,0,1-5.933,5.933H91.266a5.933,5.933,0,0,1-5.933-5.933V69.933A5.933,5.933,0,0,1,91.266,64Zm0,2.076H91.266a3.856,3.856,0,0,0-3.854,3.718l0,.138V82.985a3.856,3.856,0,0,0,3.718,3.854l.138,0h11.866a3.856,3.856,0,0,0,3.854-3.718l0-.138V69.933a3.856,3.856,0,0,0-3.718-3.854Z" class="cls-2" data-name="路径 6197"/><path id="路径_6198" d="M334.577,293.333a1.038,1.038,0,0,1,.085,2.073l-.085,0h-8.306a1.038,1.038,0,0,1-.085-2.073l.085,0Zm-.79,4.814a1.038,1.038,0,0,1,1.639,1.272l-.058.075-4.854,5.694a1.038,1.038,0,0,1-1.392.172l-.075-.058-3.452-2.965a1.038,1.038,0,0,1,1.279-1.634l.074.059,2.661,2.285,4.178-4.9Z" class="cls-2" data-name="路径 6198" transform="translate(-233.225 -222.956)"/></g></g></svg>