<svg xmlns="http://www.w3.org/2000/svg" width="16" height="16" viewBox="0 0 16 16"><g id="nrgl_icon_zsk_nor" transform="translate(-279 -376)"><rect id="矩形_2091" width="16" height="16" data-name="矩形 2091" opacity="0" transform="translate(279 376)"/><path id="联合_1" d="M1541.454,1210.5a1.454,1.454,0,0,1-1.453-1.4v-7.643a1.454,1.454,0,0,1,1.4-1.453l.056,0h5.311a1.456,1.456,0,0,1,1.453,1.4v2.648h.316a1.456,1.456,0,0,1,1.453,1.4v3.6a1.454,1.454,0,0,1-1.4,1.453h-7.137Zm-.568-9.08v7.626a.569.569,0,0,0,.53.568l.039,0h7.081a.57.57,0,0,0,.568-.53v-3.58a.569.569,0,0,0-.53-.568h-.355v2.339a.443.443,0,0,1-.884.037l0-.037v-5.817a.569.569,0,0,0-.53-.568h-5.35A.569.569,0,0,0,1540.886,1201.415Zm1.958,5.034a.443.443,0,0,1-.036-.884l.036,0h1.265a.443.443,0,0,1,.037.884l-.037,0Zm0-2.529a.443.443,0,0,1-.036-.884l.036,0h2.529a.443.443,0,0,1,.037.884l-.037,0Z" data-name="联合 1" transform="translate(-1258 -821)"/></g></svg>