<svg xmlns="http://www.w3.org/2000/svg" width="12.808" height="10.569" viewBox="0 0 12.808 10.569">
  <defs>
    <style>
      .cls-1 {
        fill: rgba(0,0,0,0.45);
      }
    </style>
  </defs>
  <path id="icon-test-3" class="cls-1" d="M102.4,200.472,99.13,197.2l-1.491-1.491-.14-.14a1.962,1.962,0,0,1,2.766-2.776l.15.15,1.486,1.486.5.5.5-.5,1.486-1.486.15-.15a1.962,1.962,0,0,1,2.766,2.777l-.14.14-1.491,1.491Zm3.448-9.175a2.939,2.939,0,0,0-1.916.712l0,0-.033.033-.3.3-1.2,1.2-1.2-1.2-.3-.3-.033-.034,0,0a2.952,2.952,0,0,0-3.843,4.482l5.375,5.374,5.375-5.374a2.954,2.954,0,0,0-1.927-5.195Z" transform="translate(-96 -191.296)"/>
</svg>
