<svg xmlns="http://www.w3.org/2000/svg" viewBox="0 0 424.07 255.12"><defs><style>.cls-1{fill:#fff;fill-rule:evenodd;}</style></defs><g id="图层_2" data-name="图层 2"><g id="_" data-name="ͼ"><path class="cls-1" d="M169.69,133.9q5.44,6.93,28.52,8.52c7.06,1.08,12.55,3.62,16.64,7.44,4.56,4.25,7.5,11.28,8,18.4-6.52.27-17.34-4.63-29.56-11.71,4.6,5.88,13.91,10.85,24.74,14.34-7.27,1.26-15.9.28-22.72-1.87a28.76,28.76,0,0,1-11.34-6.39C177,156.25,172.07,146.93,169.69,133.9Z"/><path class="cls-1" d="M241.94,134.92l2.53-.53h.1l.17,0h0l.1,0h.51l.06,0h0c1.71-.35,3.38-.7,5-1.09h0l.1,0h.07l.12,0h.15l.07,0h.11l.08,0h.13l.05,0H252l.12,0h.06l.1,0h.1l.13,0h.05l.15,0h.09l.12,0H253l.06,0h.12l.12,0h0l.15,0h.27l0,0H254l.06,0h0l.06,0h.14l.06,0h.16c.81-.25,1.59-.53,2.36-.83a24.36,24.36,0,0,0,5.71-3.08,20,20,0,0,0,1.61-1.34q.53-.48,1-1h0c0-.14,0-.29,0-.44s0-.29-.05-.44,0-.29-.05-.44,0-.29-.05-.44l-.06-.44-.06-.43c0-.14-.05-.29-.07-.43s0-.29-.07-.43,0-.29-.07-.43-.05-.28-.08-.42-.06-.29-.08-.43l-.09-.42-.09-.42-.09-.42c0-.14-.06-.27-.1-.41s-.06-.28-.1-.42-.06-.27-.1-.41-.07-.27-.11-.41-.07-.26-.1-.39h0a9.86,9.86,0,0,1-1.23.2c-.32,0-.64,0-1,0a7.54,7.54,0,0,1-.82,0l-.18,0-.55-.06c-.22,0-.44-.06-.65-.11l-.61-.14-.56-.16-.53-.19-.49-.2-.46-.22c-.15-.07-.29-.15-.43-.23l-.42-.25-.39-.25-.37-.27c-.12-.09-.24-.18-.35-.28l-.34-.28-.31-.3a2.91,2.91,0,0,1-.3-.31c-.1-.1-.2-.2-.29-.31l-.27-.32-.26-.33-.24-.34-.23-.34-.21-.35-.2-.36-.18-.37c-.06-.13-.12-.25-.17-.38s-.11-.25-.16-.38-.1-.26-.14-.39-.09-.27-.13-.4-.08-.27-.11-.41-.07-.27-.1-.41,0-.29-.08-.43l-.06-.43c0-.15,0-.3-.05-.45s0-.3,0-.45,0-.31,0-.46,0-.32,0-.48,0-.25,0-.37a.37.37,0,0,1,0-.11c0-.17,0-.34,0-.5l.09-.52c0-.17.07-.35.12-.53a5.62,5.62,0,0,1,.15-.55c.06-.19.12-.38.19-.57l.24-.6c.1-.21.2-.42.31-.63s.25-.46.39-.68a8.73,8.73,0,0,1,.5-.74c.22-.29.46-.58.71-.85l.42-.43-.15-.18c-.1-.1-.19-.21-.28-.31l-.29-.32-.29-.31-.29-.31-.3-.31-.3-.3-.3-.31-.31-.3-.31-.3-.32-.29-.32-.3-.32-.29-.32-.29c-.11-.1-.22-.2-.34-.29L249.3,95l-.34-.29-.34-.28-.35-.28-.35-.28-.35-.27-.36-.28-.37-.27-.36-.27-.38-.26-.37-.27-.18-.11-.29.36a9.92,9.92,0,0,1-.89,1,9.42,9.42,0,0,1-1.14.93,10.44,10.44,0,0,1-3.65,1.66,9.52,9.52,0,0,1-1.28.22c-.33,0-.66.06-1,.07l-.84,0-.73-.07-.67-.11-.6-.14-.57-.16-.53-.19-.49-.2c-.16-.06-.31-.14-.47-.21L232,95l-.42-.25-.39-.25-.38-.27-.35-.28-.34-.28-.32-.3-.3-.3-.29-.31-.27-.32-.25-.33-.18-.24a.61.61,0,0,0-.07-.1c-.08-.11-.15-.23-.22-.34s-.15-.24-.22-.36-.14-.23-.2-.36l-.19-.36-.17-.38c-.05-.12-.11-.25-.16-.38l-.14-.39-.13-.4c0-.13-.08-.27-.11-.41s-.07-.27-.1-.41-.06-.28-.08-.42-.05-.29-.06-.44,0-.29-.05-.44,0-.3,0-.45,0-.31,0-.46,0-.32,0-.48l0-.48a.57.57,0,0,0,0-.13l-.5-.07-.7-.1-.71-.08-.73-.07-.75-.06-.77,0-.8,0-.55,0h-2l-.91,0-.94,0-1,.06-1,.09h0c0,.16,0,.31,0,.46s0,.32,0,.48a3.87,3.87,0,0,1,0,.48c0,.16,0,.33,0,.49s-.05.35-.08.52a4.82,4.82,0,0,1-.11.52l-.06.26c0,.1-.05.19-.08.29a5.22,5.22,0,0,1-.18.56,6,6,0,0,1-.23.59c-.08.21-.18.42-.28.62a7,7,0,0,1-.36.66c-.14.25-.3.49-.46.72a9.89,9.89,0,0,1-.64.81,9.26,9.26,0,0,1-1,1,10.65,10.65,0,0,1-4.26,2.3,12.49,12.49,0,0,1-1.38.28c-.33,0-.67.07-1,.08s-.57,0-.85,0l-.75-.07-.68-.1c-.2,0-.41-.08-.61-.14l-.12,0-.46-.13-.53-.18-.5-.2-.47-.21-.45-.23-.42-.24-.39-.26-.38-.26-.36-.28-.34-.28-.32-.29-.3-.31c-.1-.1-.2-.2-.29-.31s-.19-.21-.28-.32-.17-.21-.26-.32l-.24-.34-.09-.12c-.54.33-1.08.68-1.61,1q-1.29.87-2.52,1.83c-.57.44-1.14.9-1.69,1.37s-.89.78-1.32,1.19-.75.71-1.12,1.07l-.62.63.1.11.28.32.26.33.25.33.24.34.21.35.21.36c.07.12.13.24.19.36s0,.11.08.16l.1.22c.05.12.11.25.16.38l.15.38c.05.14.09.27.13.4a3,3,0,0,1,.12.4c0,.14.07.28.11.41s.06.28.08.42.06.29.08.43,0,.3.05.44,0,.3,0,.45,0,.3,0,.46a3.68,3.68,0,0,1,0,.47c0,.16,0,.32,0,.48s0,.33,0,.49-.05.34-.07.51-.07.35-.11.52-.08.36-.13.54-.11.38-.18.56a6,6,0,0,1-.22.59c-.08.21-.17.41-.27.62s-.22.44-.34.65-.29.47-.44.7a9.63,9.63,0,0,1-.6.79,9.92,9.92,0,0,1-.89.95,10.45,10.45,0,0,1-4.78,2.58,9.7,9.7,0,0,1-1.29.23,7.93,7.93,0,0,1-1,.06c-.28,0-.56,0-.83,0s-.49,0-.74-.08-.44-.06-.66-.1l-.61-.14-.2-.06-.06.2-.18.56-.17.56c-.05.19-.11.37-.16.56l-.15.55-.15.54c0,.18-.09.36-.13.54s-.09.36-.13.54l-.12.53c0,.18-.07.35-.11.53s-.07.35-.1.52-.07.35-.1.52l-.09.52-.09.51c0,.17,0,.34-.07.51l0,.14.19.24.27.32.28.31.29.31.3.31.31.3.31.3.32.29c.11.1.22.2.34.29l.34.28.35.28.36.28.37.26.38.27.39.25.4.26.41.24c.13.09.27.17.41.25l.43.23.44.23.45.23.46.22.46.21a5,5,0,0,0,.48.21l.49.21.49.2.51.19.51.19.53.19.53.18.54.17.55.18.56.16.56.17.57.15.08,0h0l.29.08.53.13.53.14.06,0H194l.55.13h.05l.52.11.09,0,.47.1.57.13h1.44l.7,0a22.22,22.22,0,1,1,43.54,1.21Z"/><path class="cls-1" d="M218.3,116a14.06,14.06,0,0,1,11,2.56,29.17,29.17,0,0,0-12.69,3.51c-4.77,2.44-8.6,5.19-9.88,7.28A14.13,14.13,0,0,1,218.3,116Zm12.21,3.57-9.19,6.71c3.32,4.52,7.12,9.4,10,13.09a14.13,14.13,0,0,0-.84-19.8Zm-4.63,23.54a15.16,15.16,0,0,1-2.44.68A14.14,14.14,0,0,1,207,132.5c-.08-.44-.14-.87-.18-1.31l2.75,3.76c2.36-1.75,4.7-3.44,7.06-5.17C219.6,134.1,223.17,139.22,225.88,143.15Z"/><path class="cls-1" d="M212.37,0c18.44,0,35,5.8,49.3,15.09,13.63,8.83,23.54,20.62,30.7,34.05A85.61,85.61,0,0,1,302,80.42c1,8.53,1.29,15.42-.26,23.88-2.18,11.81-9.38,6-18.05-1.16l-8.87-7.28L263.1,86.23l-10.47-8.6-11.16-9.16c-24.82-19.42-31-20.46-54.23-1.37-3.57,2.93-8.09,6.59-11.56,9.48-11.07,9.22-27,22-28.46,23.27h16.22c0,25.93-.18,33.77-.18,59.7,13,8.4,31.1,14.68,47.68,14.68a90.82,90.82,0,0,0,36.65-7.44c6.53-2.81,13.38-5.76,18-11.39-2,1.13-3.54,2-5.2,3-2.47,1.38-5.13,2.75-7.67,3.87a90,90,0,0,1-18.12,5.52,32.25,32.25,0,0,1-9.33.77c.75-15.73,7.8-23.63,23.86-25.44a169.43,169.43,0,0,0,18-2.67c6-1.35,12.55-5.48,17.71-9.93a49.67,49.67,0,0,1-3.26,13.69,47.64,47.64,0,0,1-11.07,16.56c-4.92,4.93-13.55,10.59-22.37,14.47a93.77,93.77,0,0,1-37.21,7.62,92.36,92.36,0,0,1-76.47-42.42,91.4,91.4,0,0,1-6.28-86.72c5.69-13.17,14-23.12,24.3-32.15a75.85,75.85,0,0,1,26-15.46A89.49,89.49,0,0,1,212.37,0Zm81.75,100.34v-.14C300.61,52,259.67,8.29,211.79,8.29,166.74,8.29,129,46,129,91.07a82.52,82.52,0,0,0,25.48,59.73V108.66c-.29,0-9.61,0-13.59,0-7.12,0-8.09-8.94-3.19-12.43q10.71-8.85,21.39-17.74l10.43-8.69c43.19-35.87,44.38-36.63,91.3,2.76l7.53,6.25,2.71,2.25C273.36,83,294.27,100.34,294.12,100.34Z"/><path class="cls-1" d="M6.69,213.32l4.63-.06v2.09l-7.73,0v3l7.73-.08v5.17h-3l1.5-.94c-.5-.91-1.3-2.21-2.38-3.9a15.9,15.9,0,0,1-2.65,1.38c.75,1.24,1.39,2.39,1.93,3.46L1,223.32v3l22.48,0c.43,0,.87,0,1.31,0v-3l-5.94.06c.49-.72,1.21-1.94,2.17-3.67a16.79,16.79,0,0,1-3-1.36,15.22,15.22,0,0,1-2.17,3.88,15.18,15.18,0,0,1,1.63,1.15H14.32v-5.17q5.46,0,7.63.08v-3l-7.63,0v-2.09c2.16,0,3.62,0,4.39.06v-1.69A29.82,29.82,0,0,0,24,214.31,21.56,21.56,0,0,1,25.45,211a15.4,15.4,0,0,1-6.56-3,18.17,18.17,0,0,1-4.36-4.42l.48-.85a22.48,22.48,0,0,1-3.48-1.05q-2,4.91-9.68,9a.12.12,0,0,0-.11.05Q1,211,0,211.26a17.73,17.73,0,0,1,2,3,35.76,35.76,0,0,0,4.66-2.86v1.93Zm1.21-2.84a45.63,45.63,0,0,0,4.73-4.42A32.1,32.1,0,0,0,17,210.48Zm27.67-1v3.19l2.57-.08h3.8v11L41.81,227h3.51l-.09-3.48v-11h3.33l2.69.08v-3.19l-2.69.11H45.23v-4.49l.09-2.87H41.81l.13,2.87v4.49h-3.8l-2.57-.11Zm-8.88-4,.08,2.35V219l-.08,2.51h3V221h2.16v.53h3.21L35,219V207.75c0-.8,0-1.59.1-2.35l-2.78.07H29l-2.35-.07Zm3,12.65v-9.71h2.16v9.71Zm24.19-13.78v3.08q1.77-.07,6.48-.11l-.06,2.52h3.19c0-.75,0-1.59-.05-2.52h4.65l-.05,2.49,3.29,0c0-1.13-.08-2-.08-2.52q4.84,0,6.42.11v-3.08l-6.42.08c0-.53,0-1.31.08-2.33H68.07l.05,2.33H63.47l.05-2.33H60.33l.06,2.33-6.48-.08Zm.32,10.22c0,.61-.09,1.23-.13,1.88h3.43c-.06-1-.08-2-.08-3H74.22c0,1,0,1.95-.07,3h3.34q-.1-2.73,0-6-13.32.33-23.39,0l.13,4.07Zm3.83,5v-3l5.33.09a25.68,25.68,0,0,0,.16-2.65,28.33,28.33,0,0,0,3.32.37q0,.31-.27,2.28l7.68-.09-.08,4a11,11,0,0,1-.51,4.09,3.73,3.73,0,0,1-2.17,1.77,13,13,0,0,1-4,.67,9.41,9.41,0,0,0-.89-3.3c2.07,0,3.36-.24,3.86-.72a7.14,7.14,0,0,0,.61-3.64H66a9.38,9.38,0,0,1-2,3.83c-1.45,1.58-4.1,2.89-8,3.9A9.26,9.26,0,0,0,54.61,224a14.08,14.08,0,0,0,5-1.26,7.24,7.24,0,0,0,2.52-2,9.44,9.44,0,0,0,.53-1.2l-4.6.05Zm24.74-9.6q-.64,4.58-3.35,6.72a19.66,19.66,0,0,1,.86,4,19.14,19.14,0,0,0,2.54-3.08l-.11,9.41H86q-.07-2.16-.1-12.41a17.14,17.14,0,0,1,1,2.89A22,22,0,0,1,89.33,216l-.08,1.26c1.35-.07,3-.11,5.06-.13a4.45,4.45,0,0,1-.14,1l-6.72-.08V221l6-.08A7.52,7.52,0,0,1,87,224.18a15.17,15.17,0,0,1,1.84,3,14.73,14.73,0,0,0,5.49-2.49,12.25,12.25,0,0,0,1.82-2.22A11.22,11.22,0,0,0,102,226.8l1.85.43a14.7,14.7,0,0,1,1.36-3,9.52,9.52,0,0,1-6.82-3.29l6.37.08v-2.92l-7.5.08c.08-.53.12-.88.14-1,2.14,0,3.91,0,5.3.13q-.17-5.57,0-9.66l-2.44.08v-1l4.15.09v-3.05l-4.15.07c0-.37,0-1,.08-1.81H97.19c.06.85.08,1.46.08,1.81H94.79c0-.32,0-.92.08-1.81H91.71c.05.9.08,1.51.08,1.81l-3.88-.07v3.05l3.88-.09v1l-2.54-.08q.07,2.17.08,7.68a6.69,6.69,0,0,0-.46-.93l-1.1-2.39A17.46,17.46,0,0,1,85.93,213v-3.05c.64,0,1.44,0,2.41.08v-3l-2.41.06c0-2.15,0-3.86.1-5.14H82.74l.11,5.14-3-.06v3c1.07-.06,2-.08,2.92-.08Zm9.47,4.57v-.91h7.36v.94l-7.36,0Zm0-3.26v-1h7.36v1l-7.36,0Zm2.52-3.59v-1h2.48v1Zm16.89,4.68a12.06,12.06,0,0,1-1.9,3.46A11.4,11.4,0,0,1,106,219a15.05,15.05,0,0,1,2.2,3.14q1.51-1.41,3.8-4l-.11,8.62h3.48q-.07-2.12-.11-10.73A30.8,30.8,0,0,1,118,220a18.06,18.06,0,0,1,2.19-2.25q-1.47-1.92-3.27-4a12.34,12.34,0,0,1-1.71,1.47v-2.84l4.39.06V209.3l-4.39.06V205.8c1.34-.22,2.67-.5,4-.83-.75-1.15-1.37-2.19-1.87-3.14a27,27,0,0,1-10.71,2A17.45,17.45,0,0,1,107.8,207c1.39-.16,2.77-.37,4.15-.62l0,3-5.14,0v3.08l4.9-.06Zm8.46-6.74c3.41.11,7,.11,10.67,0-.05.7-.08,1.42-.08,2.17l.11,15.87h-3.29v-.54h-4.17v.54h-3.22q.23-7.85,0-18Zm3.24,14.59h4.17V208.61h-4.17v11.56Zm11.8-15.77v3.38c1.09-.06,4-.09,8.84-.11v14.26l-10.55-.11v3.38l21.12-.11c1,0,2,0,3,.11v-3.38l-10.35.11V207.67c4.54,0,7.44,0,8.66.11V204.4q-10.35.27-20.74,0Zm35.2,6.11a88.46,88.46,0,0,0,10.79-.65,20.65,20.65,0,0,1-2.09-3.24,26.45,26.45,0,0,1-11.88,1q.48,9.31-1.74,11.62l-.7.59a13.5,13.5,0,0,1,2.46,2.43,10.94,10.94,0,0,0,3-6.88h3.64l0,7.1h3.26l0-7.1,4.89.06v-3l-11.64.06.08-2Zm-9.18-7.15q10.71.24,21.71,0v3.24l-18.36-.08v16.4l19-.08v3.32c-1.08-.07-2.17-.11-3.23-.11l-19.09.11q.24-11.4,0-22.8Zm50.35,20.58a16.25,16.25,0,0,1-6.93-4.79,19.78,19.78,0,0,1-2.41-3.88q-2.33-4.68-1.9-11.93c0-.33,0-.67.05-1a35.24,35.24,0,0,1-3.77-.14,64.25,64.25,0,0,1-.56,12.15,12.93,12.93,0,0,1-2.46,5.06,15.17,15.17,0,0,1-7.25,4.47,21.69,21.69,0,0,1,2.27,3.21,33.79,33.79,0,0,0,7.12-5.08,13.47,13.47,0,0,0,3.4-6.21,19.8,19.8,0,0,0,8,10.33c.66.39,1.38.81,2.17,1.25a14,14,0,0,1,2.22-3.42Zm1.72-13.68q2.08-.07,11.62-.1-5.34,8.13-12.1,10.51a17.09,17.09,0,0,1,2.3,3.11,42.65,42.65,0,0,0,12-10.71v9.83c0,.34-.11.54-.34.61a10.77,10.77,0,0,1-2.76,0,17,17,0,0,1,1,3.64c2.48,0,4.15-.29,5-.88a1,1,0,0,0,.45-.81v-15.3q4.91,0,7,.1v-3.42l-7,.11.09-5.28H227l.1,5.28-13.86-.11v3.42Zm29.1,13.84a2.81,2.81,0,0,0,.19,1.1,1.47,1.47,0,0,0,1.15,1,25.6,25.6,0,0,0,8.24.38l.88-.13q2.08-.48,3.48-4a20.16,20.16,0,0,1-3-1.58,3.84,3.84,0,0,1-1.23,2.3q-1.12.59-5.2.32a5,5,0,0,0-.59-.11,1,1,0,0,1-.83-.51q-.08-.15-.07-9h5v2.9a1.12,1.12,0,0,1-.51,1,5.91,5.91,0,0,1-2.19.26,22.8,22.8,0,0,1,.85,3.29q1.38-.24,2.31-.48c1.46-.48,2.27-1.27,2.44-2.38q.07-.82.1-7.47l-9.82,0a41.69,41.69,0,0,0,4.28-5.36c.8.65,2.37,2.07,4.68,4.26.39.37.81.75,1.24,1.12.9-1.23,1.59-2.12,2.05-2.67q-4.89-4.12-6.42-5.3c.08-.23.16-.47.27-.72a30.58,30.58,0,0,1-3.37-.88q-2.66,6.5-7.12,8.58c.64,1,1.22,2,1.74,3,.5-.33,1-.68,1.5-1.08V224.1Zm17.85-22q.27,20.72,0,21.14c-.13.22-.59.32-1.4.32l-1.23-.1a19.88,19.88,0,0,1,.86,3.5c2.52,0,4.06-.44,4.63-1.34a4,4,0,0,0,.26-1.63l.09-21.89ZM259,220.6h-3.21q.19-8.17,0-15.15H259q-.24,7.11,0,15.15Zm10-2.49a17.77,17.77,0,0,1-1.42,3.07,11.31,11.31,0,0,1-1.95,2.33c.11.11.56.5,1.34,1.18a10,10,0,0,1,.94.91c.39-.48.75-.95,1.07-1.42s.62-.92,1-1.58c.63-1,1.21-2,1.73-3l-2.73-1.47Zm-3-7.71v2.89l1.9-.06H278l1.9.09V210.4l-2.94,0,1-2.3a14.88,14.88,0,0,1-1.44-.62q1,0,3,.09v-3.06l-5,.06a1,1,0,0,1,.3-.16L273.53,202a2.88,2.88,0,0,1-.27-.49,12.69,12.69,0,0,1-2.71,1.15,1,1,0,0,0,.14.27l.86,1.69h-3.11l-2.3-.06v3.06c1.18-.06,2.46-.09,3.85-.09-.64.33-1.19.58-1.65.78l1.09,2.14-3.5,0Zm6,0,.69-.4c-.17-.28-.49-.85-1-1.69l-.48-.8,4,0a12.9,12.9,0,0,1-1.18,2.66c.22.07.45.16.7.26Zm2.92,4.77h2.86l1.9-.08V218l-4.76-.05v2a9.43,9.43,0,0,0,1.55-1.71c.89.84,1.66,1.51,2.3,2a8.75,8.75,0,0,1,.7.64,4.28,4.28,0,0,0-.4.45,7.83,7.83,0,0,0-.7.89c-.14.21-.28.4-.4.56a2.17,2.17,0,0,0-.24.29l-1.24-1.26-1.57-1.41v4.47a2.63,2.63,0,0,1-.16,1.12,2.09,2.09,0,0,1-1,.64,14.84,14.84,0,0,1-2,.49,5.39,5.39,0,0,1-1,.07,10.47,10.47,0,0,0-1.18-3.12c.34,0,.68,0,1,0q.83,0,1-.24a1,1,0,0,0,.1-.54V218h-3.05l-2.46.05v-2.88l2.38.08h3.13c0-.52-.05-1-.05-1.53h3.21c0,.52-.05,1-.05,1.53Zm10.7-2.9h-2.25a59.49,59.49,0,0,1-.4,8,10.86,10.86,0,0,1-2,5.09,14.42,14.42,0,0,1-1.87,1.9,9.33,9.33,0,0,0-1.07-1.1,14.83,14.83,0,0,0-1.56-1.18,6.84,6.84,0,0,0,2.47-2.27,13.27,13.27,0,0,0,1.33-5.92l.17-8.1-.08-5.38a17.64,17.64,0,0,0,7.76-1.56,23.22,23.22,0,0,0,2.14,3c-.7.21-1.74.45-3.13.72l-3.62.59v3.31h4.61l2.67-.05v3c-.69,0-1.39,0-2.08,0v12.2l.05,2.68h-3.26l.1-2.71V212.32Zm9.14-7.92v3.38c1.08-.06,4-.09,8.83-.11v14.26L293,221.82v3.38l21.12-.11c1,0,2,0,3,.11v-3.38l-10.35.11V207.67q6.83,0,8.67.11V204.4q-10.37.27-20.74,0Zm28.26,19.51-.08,2.92h3.22l-.09-2.92V211.2l.09-2h-.65c.38-.7.75-1.46,1.12-2.3s.94-2.26,1.53-3.85a18.33,18.33,0,0,1-3.43-1.21,15.61,15.61,0,0,1-.4,1.8c-.16.58-.37,1.22-.64,1.92a17,17,0,0,1-3.13,5.36,7.65,7.65,0,0,1-1.93,1.44,13.39,13.39,0,0,1,2.09,3.1c.72-.69,1.48-1.49,2.3-2.41v10.84ZM343.79,210l-2.41-.08h-5.27v3.21h4.49c.76,0,1.51,0,2.26,0v3.13l-6.75-.06v2.79h5l2.51,0V222l-7.54,0v1.9l.11,3h-3.4l.08-3v-14h-.7a29.22,29.22,0,0,1-3.07,4.9,11.61,11.61,0,0,0-2.92-2.14,11.52,11.52,0,0,0,1.87-2,13.59,13.59,0,0,0,1.31-2.41,25.76,25.76,0,0,0,1.05-2.64,19.83,19.83,0,0,0,.72-3.59,18.17,18.17,0,0,0,3.67,1,5.4,5.4,0,0,0-.22.51,13.49,13.49,0,0,0-.53,1.63,16.06,16.06,0,0,0-.59,1.72h7.89l2.41-.06V210Zm14.41-8.3a28.38,28.38,0,0,1-2.95,1.5,4.87,4.87,0,0,0,.43.49,3.71,3.71,0,0,1,.38.45l.77.94-10.65-.11v5.51h3.34c0-.55,0-1.4,0-2.54h17l-.06,2.65h3.35c-.07-1.94-.07-3.82,0-5.62l-10,.11.8-.59c-.27-.38-1.06-1.31-2.4-2.79Zm-11.94,25.05q11.72-.24,23.52,0v-3.13l-10.08.11v-1.79q5.37,0,7.3.1v-3l-7.3.11c0-.59,0-1.17.05-1.74h-3.37c0,.55,0,1.13.05,1.74L349,219v3c1.4,0,3.86-.09,7.39-.1v1.79l-10.17-.11v3.13ZM354,212.09l-4,0V209.3h16v2.84l-2.62,0q3.92,3.39,4.18,3.66a22.74,22.74,0,0,0-2.09,2.36,14.43,14.43,0,0,0-1-1.1q-8.73,0-13.95.53c-.29-.73-.7-1.65-1.25-2.78a12.62,12.62,0,0,0,4.68-2.67Zm1.31,2.35,6.45,0c-.45-.42-.94-.86-1.47-1.31a13.56,13.56,0,0,0,1.52-1h-3.4l-3.1,2.35Zm18.18,6.05-1.42.24a15.84,15.84,0,0,1,.8,3.16c.56-.22,2.65-.78,6.29-1.69l-.11,5h3.08c-.05-1.44-.08-3.37-.08-5.78a10.11,10.11,0,0,1,1.69-.34l.11-3.08c-.49.21-1.09.44-1.8.7V205.63l1.45.09v-2.87q-5.55.24-11.35,0v2.87l1.34-.09v14.86Zm5.67-6.77h-2.81v-2.55h2.81v2.55Zm-2.81-5.14v-3h2.81v3Zm2.81,10.73a20.68,20.68,0,0,1-2.81.64v-3.58h2.81v2.94Zm8.7-2.35c-2.41,0-4.12,0-5.14.1v-3l5.41.08c.07-1.5.1-3,.1-4.34l-5.27.06V207l3.26.06a20.24,20.24,0,0,0-1.9-3.91,20.47,20.47,0,0,0,2.71-1.23l1.61,3.13c.14.32.27.61.4.88a12.26,12.26,0,0,0-2.09,1.13h4.76a5.49,5.49,0,0,0-1.34-.62,13.47,13.47,0,0,0,1.9-4.44,13.45,13.45,0,0,0,2.87,1.26c-.54,1.25-1.13,2.51-1.77,3.8l3.27-.06v2.87c-.7,0-2.46-.06-5.3-.06l-.21,4.34q3.93,0,6.18-.08v3c-1-.07-2.79-.1-5.3-.1a14.41,14.41,0,0,0,2,4.52,8.23,8.23,0,0,0,3.91,3.16,2.37,2.37,0,0,1-.32.45.24.24,0,0,0-.1.13q-1.4,2-1.56,2.28a19,19,0,0,1-3.58-3.24,18.61,18.61,0,0,1-2.15-4.15,19.41,19.41,0,0,1-1.36,2.89,14.64,14.64,0,0,1-4.84,4.31,19.18,19.18,0,0,0-1.85-2.78,7.56,7.56,0,0,0,4.36-3.24,12.29,12.29,0,0,0,1.37-4.33Zm11.35,6.58v3l23-.08c.59,0,1.21,0,1.87.08v-3c-1.44.05-2.46.08-3.05.08q0-5.31.11-6.64H419.5a5.73,5.73,0,0,0,2.06-.75c.33-.27.51-1,.53-2.19,0-6.9,0-10.85.11-11.83q-5.55.16-10.57,0c.28,5.46.06,8.94-.67,10.46a10.12,10.12,0,0,1-.91,1.23q-.17-5.72,0-11.24-5.29.17-9.39,0,.17,6.51,0,11.83,6-.18,8.62,0c-.54.28-1,.53-1.52.75a8.65,8.65,0,0,1,2,1.76l-7.6,0q.08,2.08.08,6.69c-.5,0-1.51,0-3-.08Zm4.55-16.22v-2h3.43v2Zm0,4.52v-2.08h3.43v2.08Zm1.45,11.78v-3.88h2.43v3.88Zm5.3,0v-3.88h2.25v3.88ZM411,217a16,16,0,0,0,1.92-1.76,11.34,11.34,0,0,0,1.4-2.79h4.71c0,.86-.08,1.36-.25,1.5a6,6,0,0,1-2.16.08,10.74,10.74,0,0,1,1.1,3Zm3.61-6.93.08-1.28h4.34v1.28Zm.14-3.64V205h4.28v1.44Zm.82,13.33H418v3.88h-2.39Z"/><path class="cls-1" d="M31.41,255.12l-.07-.13c-.28-.56-.52-1.06-.71-1.51s-.35-.86-.48-1.24-.25-.79-.36-1.18-.21-.83-.31-1.29-.25-1.16-.34-1.7S29,247,29,246.49s-.06-1.06-.06-1.59,0-.9,0-1.33,0-.86.1-1.26c.07-.59.17-1.17.29-1.74a17.78,17.78,0,0,1,.46-1.77c.18-.6.41-1.24.67-1.9s.56-1.39.9-2.16l.09-.2h-2c-.17.24-.31.45-.43.64s-.24.36-.35.54-.21.37-.32.59-.24.46-.39.75a19.63,19.63,0,0,0-1.08,2.57,16.53,16.53,0,0,0-.63,2.54,17.7,17.7,0,0,0-.2,2.66c0,.46,0,.91.05,1.34s.09.88.17,1.31.18.87.29,1.32.26.91.41,1.38.41,1.17.63,1.72.48,1.08.76,1.6a11.6,11.6,0,0,0,1,1.53l.07.09ZM53,235.2l-13.3,0v2.44c1.13,0,4.18-.07,9.17-.08v12.92a.83.83,0,0,1-.41.83,8.06,8.06,0,0,1-2.76-.06,11.66,11.66,0,0,1,.92,3c2.4-.1,3.85-.52,4.35-1.28a3.52,3.52,0,0,0,.27-1.57V237.51c.58,0,1.16,0,1.76,0V235.2Zm-13,13.08q.09-4.6,0-8.65,3,.06,7.26,0-.12,4.1,0,8.65a67.46,67.46,0,0,0-7.26,0ZM42.46,246v-4h2.48v4Zm-5.74-2.83c.51-.78.9-1.37,1.18-1.76-.23-.17-1.39-1-3.47-2.33a11,11,0,0,1-1.5,2.1,15,15,0,0,1,3.44,2.5c.11-.17.22-.34.35-.51Zm2.21,3.11a2.3,2.3,0,0,1,.36-.8c-1-.61-1.72-1.13-2.27-1.56a23.34,23.34,0,0,1-1.85,4.54,16.39,16.39,0,0,1-2.2,3.3,24.27,24.27,0,0,1,2.31,1.89,72.23,72.23,0,0,0,3.65-7.37Zm-4.27-10.48a18.91,18.91,0,0,1,3.49,2.55,3,3,0,0,1,.3-.47c.69-1.17,1-1.78,1.08-1.82-1.16-.81-2.3-1.57-3.41-2.27a14.66,14.66,0,0,1-1.46,2Zm22.91.34v2.58l8.34-.07c0,.44,0,.91,0,1.39l-7.32-.08q.12,6.56,0,13.64h2.72l0-11.29h3a9.19,9.19,0,0,1-1,.67,9.43,9.43,0,0,1,1.28,1.56l-2.4,0v2.23l3.9-.05v1.12l-3.9-.05V250l3.9-.05,0,3.49h2.72l0-3.49,3.53.05V247.7l-3.53.05v-1.12l3.51.05v-2.23l-2,0c.1-.13.37-.57.81-1.33a4.48,4.48,0,0,0,.22-.43,4.58,4.58,0,0,1-1-.47H73l-.06,8.55a.54.54,0,0,1-.32.37,6,6,0,0,1-1.91-.07,13.71,13.71,0,0,1,.84,2.94c1.9,0,3.13-.32,3.71-1a3.86,3.86,0,0,0,.34-1.88q0-10,.08-11.29l-7,.08c0-.47,0-.93,0-1.39l8,.07v-2.58l-7.93.09q0-.9.09-2.1c-.81,0-1.79-.06-2.93-.17a21.25,21.25,0,0,1,0,2.27l-8.34-.09Zm11.18,6.17a10.28,10.28,0,0,1-1,2,2.08,2.08,0,0,1,.64.28H66.06a2.41,2.41,0,0,1,.83-.64l-1.37-1.59Zm13.59,5.17h2.88c0-.1,0-.21,0-.33h4.67v4.35L89.76,254h3.06l-.08-2.51V247.1h4.77c0,.11,0,.22,0,.35h2.92l-.07-2.59v-4.78l.07-2.19-2.27.09h-5.4c0-1.47,0-2.79.08-4H89.76l.08,4H84.58l-2.24-.09.07,2.19v4.78l-.07,2.57Zm2.83-3v-3.84h4.67v3.84Zm12.34,0H92.74v-3.84h4.77v3.84Zm8.34-6.11v1c0,1,0,2.05-.1,3.17,0,.74-.13,1.5-.26,2.27.56,0,1,0,1.29-.07a5.26,5.26,0,0,1,1,.13c.08-.81.17-1.84.25-3.08s.09-2.35.11-3.32a6.23,6.23,0,0,1-.71.06,9.25,9.25,0,0,1-1-.08l-.6-.07Zm7.4,13.22c0-.29,0-.56,0-.81a7.06,7.06,0,0,1-.73.4l-.79.56a26.06,26.06,0,0,0-1.33-3.32,19.57,19.57,0,0,1-1.09,3.06,16.57,16.57,0,0,1-1.76,2.64,7,7,0,0,0-.94-1,13.93,13.93,0,0,0-1.33-.94,5.67,5.67,0,0,0,.94-.62,6.65,6.65,0,0,0,1.31-2.08,17.35,17.35,0,0,0,.94-5.42c.09-1.43.13-2.92.13-4.48l-.09-5.57.33.06a18.84,18.84,0,0,0,2.22.07L111,240a9.36,9.36,0,0,0,.94-2.21,8.55,8.55,0,0,0,1.35.93l-.07-4.08,2.06.07h7.31l2.57-.07-.07,2.25v14.42l.07,2.49h-2.53v-.39h-6.82v.39h-2.59l.07-2.21Zm0-2.12v-9.15c-.22.49-.41.9-.58,1.24s-.54.88-.92,1.48a6.75,6.75,0,0,0-.82-1.05l-.27,5.08a10.36,10.36,0,0,0,1.28-.62,16.88,16.88,0,0,1,1.31,3ZM115.69,237l0,10.72a4.72,4.72,0,0,0,1.56-2.17,13.29,13.29,0,0,0,.65-3.15c-.58,0-1.16,0-1.76.06v-2.2l1.86,0,.09-3.1a8,8,0,0,0,.83.19l1.48.17c0,.56-.08,1-.13,1.35s0,.83-.06,1.39l2,0v2.2q-1.26-.06-2.1-.06c0,.61-.1,1.22-.19,1.82a2.88,2.88,0,0,0,.64-.45,36.62,36.62,0,0,1,2,3.28V237Zm6.9,14V248c-.44.45-.86.88-1.24,1.31-.35-.73-.67-1.35-1-1.88a10.5,10.5,0,0,0-.9-1.42,14.15,14.15,0,0,1-2.25,3.8,6.67,6.67,0,0,0-1.54-1.82v2.95ZM134.94,243l3.7,0v1.67l-6.19,0V247l6.19-.07v4.14h-2.38l1.2-.75c-.4-.73-1-1.77-1.9-3.13a12.37,12.37,0,0,1-2.12,1.12c.6,1,1.11,1.9,1.54,2.76l-4.63,0v2.42l18,0c.34,0,.69,0,1.05,0v-2.42l-4.76,0q.59-.85,1.74-2.94a13.12,13.12,0,0,1-2.4-1.09,12.17,12.17,0,0,1-1.74,3.11,13.56,13.56,0,0,1,1.31.92H141V247c2.92,0,5,0,6.11.07v-2.4l-6.11,0V243c1.73,0,2.9,0,3.52,0v-1.34a24,24,0,0,0,4.22,2.14,17.14,17.14,0,0,1,1.17-2.68,12.26,12.26,0,0,1-5.24-2.38,14.58,14.58,0,0,1-3.5-3.53l.39-.69a17.77,17.77,0,0,1-2.79-.84q-1.62,3.93-7.75,7.18a.11.11,0,0,0-.09.05c-.38.14-.84.29-1.39.45a14.46,14.46,0,0,1,1.63,2.39,28.06,28.06,0,0,0,3.73-2.29V243Zm1-2.27a35.87,35.87,0,0,0,3.79-3.53,26.1,26.1,0,0,0,3.47,3.53Zm25-.83v2.55l2.06-.07h3v8.79L165.9,254h2.81l-.07-2.78v-8.79h2.66l2.16.07v-2.55l-2.16.08h-2.66v-3.59l.07-2.3H165.9l.11,2.3V240h-3l-2.06-.08Zm-7.11-3.24.06,1.89v9l-.06,2h2.42v-.43H158v.43h2.57l-.08-2v-9c0-.64,0-1.27.08-1.89l-2.22.07h-2.62l-1.88-.07Zm2.42,10.14v-7.78H158v7.78Zm23.44-10.93v2.7q1.31-.06,7.08-.08v11.41l-8.45-.08v2.7l16.91-.09c.78,0,1.59,0,2.42.09v-2.7l-8.29.08V238.52c3.64,0,5.95,0,6.94.08v-2.7q-8.29.21-16.61,0Zm31,4.89a71.57,71.57,0,0,0,8.63-.52,17.11,17.11,0,0,1-1.67-2.59,21.25,21.25,0,0,1-9.51.81c.25,5-.21,8.07-1.4,9.3l-.56.47a10.71,10.71,0,0,1,2,2,8.8,8.8,0,0,0,2.43-5.5h2.91l0,5.67h2.61l0-5.67,3.92,0v-2.38l-9.32,0,.07-1.62Zm-7.35-5.73q8.57.21,17.37,0v2.6L206,237.59v13.14l15.18-.07v2.66c-.87-.06-1.73-.09-2.59-.09l-15.27.09q.18-9.12,0-18.26Zm23.08,9.24V247l17.24-.06c.7,0,1.42,0,2.17.06V244.3l-5.25.11v-4l3.88.05v-2.57l-3.88,0,0-3.86h-2.72l0,3.86h-3.72l0-3.92h-2.74l0,3.92-3.92,0v2.57l3.92-.05v4l-5.14-.11Zm7.8.11v-4H238v4Zm-4.89,9.49a1.54,1.54,0,0,1,.35-.24c.48-.3,1.35-.94,2.61-1.93l2.16-1.91.64-.6a13.07,13.07,0,0,1-1.88-1.64l-.3-.26a13.59,13.59,0,0,1-2.48,2.49,14.14,14.14,0,0,1-3.16,1.77,11.86,11.86,0,0,1,1.89,2.42.55.55,0,0,1,.17-.1Zm7.8-4.78a36,36,0,0,1,5.87,5.12,17.39,17.39,0,0,1,2-2.21c-2.2-1.92-4.12-3.52-5.76-4.78a9.81,9.81,0,0,1-2.06,1.87Zm15.61,2.55a2.17,2.17,0,0,0,.15.88,1.19,1.19,0,0,0,.92.81,20.72,20.72,0,0,0,6.59.3l.71-.11c1.11-.25,2-1.31,2.79-3.17a16.27,16.27,0,0,1-2.43-1.26,3,3,0,0,1-1,1.84c-.6.32-2,.4-4.16.26l-.47-.09a.82.82,0,0,1-.66-.4c0-.09-.07-2.5-.07-7.22h4v2.31a.9.9,0,0,1-.41.79,4.71,4.71,0,0,1-1.75.22,20,20,0,0,1,.68,2.63c.73-.13,1.34-.25,1.84-.39,1.18-.38,1.82-1,1.95-1.9,0-.44.07-2.44.09-6l-7.86,0a32.65,32.65,0,0,0,3.42-4.29q1,.78,3.75,3.41c.32.3.64.6,1,.9.73-1,1.28-1.7,1.65-2.14q-3.93-3.3-5.14-4.24a5.12,5.12,0,0,1,.21-.58,24.7,24.7,0,0,1-2.7-.71q-2.11,5.21-5.7,6.88a26.4,26.4,0,0,1,1.4,2.38c.4-.26.79-.55,1.2-.86v9.75ZM267,234.08c.15,11,.15,16.69,0,16.93s-.47.25-1.12.25l-1-.08a15.32,15.32,0,0,1,.69,2.8c2,0,3.25-.35,3.71-1.07a3.26,3.26,0,0,0,.21-1.31l.07-17.52Zm-1,14.78h-2.57q.15-6.54,0-12.13H266q-.19,5.7,0,12.13Zm8.66-4.56V247l17.25-.06q1.05,0,2.16.06V244.3l-5.25.11v-4l3.88.05v-2.57l-3.88,0,0-3.86h-2.72l0,3.86h-3.73l0-3.92h-2.74l0,3.92-3.92,0v2.57l3.92-.05v4l-5.14-.11Zm7.8.11v-4h3.73v4Zm-4.88,9.49a1.47,1.47,0,0,1,.34-.24c.48-.3,1.36-.94,2.61-1.93l2.16-1.91.65-.6a12.49,12.49,0,0,1-1.89-1.64l-.3-.26a13,13,0,0,1-2.48,2.49,14.1,14.1,0,0,1-3.15,1.77,11.82,11.82,0,0,1,1.88,2.42.61.61,0,0,1,.18-.1Zm7.79-4.78a35.6,35.6,0,0,1,5.87,5.12,18.21,18.21,0,0,1,2-2.21c-2.2-1.92-4.12-3.52-5.76-4.78a9.81,9.81,0,0,1-2.06,1.87ZM299,247.34v2.32l2.7-.09h5.94a5.14,5.14,0,0,1,.21,1.11.94.94,0,0,1-.32.73,1.72,1.72,0,0,1-1,.26,14.15,14.15,0,0,1-1.65-.13,9.79,9.79,0,0,1,.52,2.68c.38,0,.67.06.85.06a7.5,7.5,0,0,0,2.58-.32,2.7,2.7,0,0,0,1.75-2.81,6.82,6.82,0,0,0-.23-1.58h5l2.7.09v-2.32l-2.7.06h-3.53c1-.47,1.85-.9,2.57-1.3a12.09,12.09,0,0,0,1.52-1l-1.16-1.39H303.51l-2.67-.07v2.12l2.59-.08H311l-2.08,1.15a10.41,10.41,0,0,1-1.07-1.11,12.34,12.34,0,0,1-1.2.58q-.4.15-1,.3c.38.47.62.75.7.83h-4.71l-2.68-.06Zm2.81-11.23-2.68-.08v2.36l2.68-.09H315l2.85.09V236l-2.87.08h-5.14a4.38,4.38,0,0,1,.56-.34c-.06-.08-.13-.19-.21-.32s-.27-.42-.41-.62c-.39-.66-.7-1.15-.94-1.48a15.08,15.08,0,0,1-1.31.77c-.17.09-.48.22-.92.41.34.53.67,1.06,1,1.58Zm0,2.77,0,3.45c0,.27,0,.57,0,.9l2.1-.07h9.32l1.8.09c0-.6,0-1.49,0-2.66,0-.55,0-1.13,0-1.73-.44,0-.89,0-1.35.08h-10.3l-1.57-.06Zm2.42,2.59v-.75h8.32v.75Zm20.21-5.57v2.7q1.31-.06,7.07-.08v11.41l-8.44-.08v2.7l16.91-.09c.78,0,1.59,0,2.42.09v-2.7l-8.29.08V238.52c3.64,0,5.95,0,6.94.08v-2.7q-8.3.21-16.61,0Zm25.48,15.62-.06,2.33h2.57l-.06-2.33V241.34l.06-1.58h-.51c.3-.56.6-1.18.9-1.84s.75-1.82,1.22-3.09a14.14,14.14,0,0,1-2.74-1q-.13.73-.33,1.44a15.32,15.32,0,0,1-.51,1.54,13.5,13.5,0,0,1-2.51,4.29,5.9,5.9,0,0,1-1.54,1.15,10.68,10.68,0,0,1,1.67,2.49c.58-.56,1.19-1.2,1.84-1.93v8.68Zm16.7-11.16-1.94-.07h-4.21v2.57h3.59c.61,0,1.21,0,1.81,0v2.51l-5.4-.05v2.23h4l2,0V250l-6,0v1.52l.08,2.44h-2.72l.06-2.44V240.29h-.55a22.69,22.69,0,0,1-2.47,3.92,9.21,9.21,0,0,0-2.33-1.71,9.36,9.36,0,0,0,1.5-1.63,11.31,11.31,0,0,0,1.05-1.93,19.56,19.56,0,0,0,.83-2.12,14.76,14.76,0,0,0,.58-2.87,15.16,15.16,0,0,0,2.94.84,2.77,2.77,0,0,0-.17.41,9.07,9.07,0,0,0-.43,1.3,11.9,11.9,0,0,0-.47,1.37h6.31l1.94,0v2.53ZM381,233.71a21,21,0,0,1-2.36,1.2,4.13,4.13,0,0,0,.34.39,2.2,2.2,0,0,1,.3.36l.63.76-8.53-.09v4.41h2.68c0-.44,0-1.12,0-2h13.64l0,2.12h2.68q-.09-2.34,0-4.5l-8,.09.65-.48c-.22-.29-.86-1-1.93-2.23Zm-9.56,20.06q9.39-.2,18.83,0v-2.51l-8.07.09v-1.44c2.87,0,4.82,0,5.84.09v-2.42l-5.84.08c0-.47,0-.93,0-1.39h-2.7c0,.44,0,.91,0,1.39l-5.91-.08V250q1.68-.06,5.91-.09v1.44l-8.14-.09v2.51Zm6.17-11.72-3.17,0v-2.27h12.79v2.27l-2.1,0c2.09,1.81,3.2,2.79,3.35,2.93a19.33,19.33,0,0,0-1.68,1.89A8.56,8.56,0,0,0,386,246q-7,0-11.16.43c-.23-.58-.56-1.33-1-2.23a10,10,0,0,0,3.74-2.14Zm1.05,1.88,5.17,0c-.36-.34-.75-.69-1.18-1a11.55,11.55,0,0,0,1.22-.81h-2.72l-2.49,1.88Zm14,11.19h2.06l.07-.09a12.46,12.46,0,0,0,1-1.56,17.34,17.34,0,0,0,.76-1.64c.22-.55.43-1.1.61-1.65s.35-1.21.49-1.85.24-1.27.32-1.89a14.62,14.62,0,0,0,0-3.41c-.07-.57-.16-1.14-.27-1.7a15.51,15.51,0,0,0-.43-1.63,17,17,0,0,0-.69-1.74c-.27-.6-.57-1.2-.9-1.78a19.27,19.27,0,0,0-1-1.64h-2l.09.2c.3.69.57,1.33.8,1.91s.44,1.13.61,1.65.32,1,.45,1.55.25,1.09.34,1.63.15,1.1.19,1.66.06,1.15.06,1.76a20.12,20.12,0,0,1-.13,2.36c0,.4-.1.8-.18,1.22s-.17.84-.28,1.29-.21.9-.31,1.29-.23.79-.36,1.18-.29.8-.48,1.24-.43,1-.71,1.51Z"/></g></g></svg>