<svg xmlns="http://www.w3.org/2000/svg" width="16" height="16" viewBox="0 0 16 16">
  <defs>
    <style>
      .cls-1 {
        opacity: 0;
      }

      .cls-2 {
        stroke: rgba(0,0,0,0);
        stroke-miterlimit: 10;
        opacity: 0.65;
      }
    </style>
  </defs>
  <g id="师徒历程审核" transform="translate(-15 -291)">
    <rect id="矩形_56" data-name="矩形 56" class="cls-1" width="16" height="16" transform="translate(15 291)"/>
    <path id="路径_6232" data-name="路径 6232" class="cls-2" d="M118.585,48a.714.714,0,0,1,.505.209l2.447,2.447a.715.715,0,0,1,.209.505v6.13a2.014,2.014,0,0,1-2.014,2.014h-5.718A2.014,2.014,0,0,1,112,57.291V50.014A2.014,2.014,0,0,1,114.014,48Zm-.607.91h-3.963a1.1,1.1,0,0,0-1.1,1.1v7.277a1.1,1.1,0,0,0,1.1,1.1h5.718a1.1,1.1,0,0,0,1.1-1.1V51.769h-1.364a1.494,1.494,0,0,1-1.493-1.437V48.91Zm.614,3.925a.416.416,0,0,1,.035.558l-.027.03-1.671,1.722a.416.416,0,0,1-.537.051l-.032-.025-1.188-1.02a.416.416,0,0,1,.51-.656l.032.025.891.765,1.4-1.44A.416.416,0,0,1,118.592,52.835Zm1.861-1.976-1.566-1.566v.981a.585.585,0,0,0,.545.583h1.021Z" transform="translate(-94 245)"/>
  </g>
</svg>
