<svg xmlns="http://www.w3.org/2000/svg" width="32" height="32" viewBox="0 0 32 32">
  <defs>
    <style>
      .cls-1 {
        opacity: 0;
      }

      .cls-2 {
        fill: #1890ff;
      }
    </style>
  </defs>
  <g id="icon_mzjy" transform="translate(-732 -328)">
    <rect id="矩形_2096" data-name="矩形 2096" class="cls-1" width="32" height="32" transform="translate(732 328)"/>
    <g id="组_6280" data-name="组 6280" transform="translate(624.743 262.208)">
      <path id="路径_6201" data-name="路径 6201" class="cls-2" d="M126.1,69.333a1.051,1.051,0,0,1,.086,2.1l-.086,0h-8.358a3.642,3.642,0,0,0-3.64,3.505l0,.137v13.43a3.642,3.642,0,0,0,3.505,3.64l.137,0h11.029a3.642,3.642,0,0,0,3.64-3.505l0-.137v-8.99a1.051,1.051,0,0,1,2.1-.086l0,.086v8.99a5.743,5.743,0,0,1-5.58,5.741l-.164,0H117.744A5.743,5.743,0,0,1,112,88.671l0-.164V75.077a5.743,5.743,0,0,1,5.58-5.741l.164,0H126.1Z" transform="translate(0 0)"/>
      <path id="路径_6202" data-name="路径 6202" class="cls-2" d="M319.31,112.321a1.051,1.051,0,0,1,1.6,1.36l-.066.077-9.006,9.607a1.051,1.051,0,0,1-1.6-1.36l.066-.077,9.006-9.607Zm-7.039,16.48a1.051,1.051,0,0,1,.086,2.1l-.086,0h-7.205a1.051,1.051,0,0,1-.086-2.1l.086,0Zm-4.8-4.2a1.051,1.051,0,0,1,.086,2.1l-.086,0h-2.4a1.051,1.051,0,0,1-.086-2.1l.086,0Z" transform="translate(-186.612 -41.455)"/>
    </g>
  </g>
</svg>
