<svg xmlns="http://www.w3.org/2000/svg" width="24" height="24" viewBox="0 0 24 24">
  <defs>
    <style>
      .cls-1 {
        opacity: 0.8;
      }

      .cls-2, .cls-3 {
        fill: #fff;
      }

      .cls-2 {
        opacity: 0;
      }
    </style>
  </defs>
  <g id="nav_icon_yygl_nor" class="cls-1" transform="translate(-513 -15)">
    <rect id="矩形_39" data-name="矩形 39" class="cls-2" width="24" height="24" transform="translate(513 15)"/>
    <path id="路径_2203" data-name="路径 2203" class="cls-3" d="M118.123,100.019H113.67a1.67,1.67,0,0,0-1.67,1.67v4.453a1.67,1.67,0,0,0,1.67,1.67h4.453a1.67,1.67,0,0,0,1.67-1.67v-4.453A1.67,1.67,0,0,0,118.123,100.019Zm-4.453,1.559h4.453a.111.111,0,0,1,.111.111v4.453a.111.111,0,0,1-.111.111H113.67a.111.111,0,0,1-.111-.111v-4.453A.111.111,0,0,1,113.67,101.577Zm4.453-10.911H113.67a1.67,1.67,0,0,0-1.67,1.67V96.79a1.67,1.67,0,0,0,1.67,1.67h4.453a1.67,1.67,0,0,0,1.67-1.67V92.337A1.67,1.67,0,0,0,118.123,90.667Zm-4.453,1.559h4.453a.111.111,0,0,1,.111.111V96.79a.111.111,0,0,1-.111.111H113.67a.111.111,0,0,1-.111-.111V92.337A.111.111,0,0,1,113.67,92.225Zm13.805-1.559h-4.453a1.67,1.67,0,0,0-1.67,1.67V96.79a1.67,1.67,0,0,0,1.67,1.67h4.453a1.67,1.67,0,0,0,1.67-1.67V92.337A1.67,1.67,0,0,0,127.475,90.667Zm-4.453,1.559h4.453a.111.111,0,0,1,.111.111V96.79a.111.111,0,0,1-.111.111h-4.453a.111.111,0,0,1-.111-.111V92.337A.111.111,0,0,1,123.022,92.225Zm2.227,7.793a3.9,3.9,0,1,0,3.9,3.9A3.9,3.9,0,0,0,125.249,100.019Zm0,1.559a2.338,2.338,0,1,1-2.338,2.338A2.338,2.338,0,0,1,125.249,101.577Z" transform="translate(404.796 -71.871)"/>
  </g>
</svg>
