<svg xmlns="http://www.w3.org/2000/svg" width="24" height="24" viewBox="0 0 24 24">
  <defs>
    <style>
      .cls-1, .cls-2 {
        fill: #fff;
      }

      .cls-1 {
        opacity: 0;
      }
    </style>
  </defs>
  <g id="nav_icon_jfgl_pre" transform="translate(-837 -15)">
    <rect id="矩形_42" data-name="矩形 42" class="cls-1" width="24" height="24" transform="translate(837 15)"/>
    <g id="组_2016" data-name="组 2016" transform="translate(840 18)">
      <path id="路径_2204" data-name="路径 2204" class="cls-2" d="M77.439,64a4.2,4.2,0,0,1,4.2,4.2v9.239a4.2,4.2,0,0,1-4.2,4.2H68.2a4.2,4.2,0,0,1-4.2-4.2V68.2A4.2,4.2,0,0,1,68.2,64Zm0,1.47H68.2A2.73,2.73,0,0,0,65.472,68.1l0,.1v9.239A2.73,2.73,0,0,0,68.1,80.167l.1,0h9.239a2.73,2.73,0,0,0,2.728-2.632l0-.1V68.2a2.73,2.73,0,0,0-2.632-2.728Z" transform="translate(-64 -64)"/>
      <path id="路径_2205" data-name="路径 2205" class="cls-2" d="M251.4,306.94a.735.735,0,0,1,.732.674l0,.06v3.78a.735.735,0,0,1-1.467.06l0-.06v-3.78A.735.735,0,0,1,251.4,306.94Zm8.819.84a.735.735,0,0,1,.732.674l0,.06v2.94a.735.735,0,0,1-1.467.06l0-.06v-2.94A.735.735,0,0,1,260.221,307.78Zm-4.2-3.78a.735.735,0,0,1,.732.674l0,.061v6.72a.735.735,0,0,1-1.467.06l0-.06v-6.72A.735.735,0,0,1,256.021,304Z" transform="translate(-246.992 -299.275)"/>
    </g>
  </g>
</svg>
