<svg xmlns="http://www.w3.org/2000/svg" width="24" height="24" viewBox="0 0 24 24"><defs><style>.a{opacity:0;}</style></defs><g transform="translate(-513 -15)"><rect class="a" width="24" height="24" transform="translate(513 15)"/><g transform="translate(516 18)"><path class="b" d="M54.518,75.583,49.7,79.193A4.26,4.26,0,0,0,48,82.6v5.8a4.26,4.26,0,0,0,4.26,4.26H62.272a4.26,4.26,0,0,0,4.26-4.26V82.6a4.26,4.26,0,0,0-1.7-3.408l-4.814-3.611A4.58,4.58,0,0,0,54.518,75.583Zm4.6,1.193,4.814,3.611A2.769,2.769,0,0,1,65.041,82.6v5.8a2.769,2.769,0,0,1-2.769,2.769H52.26a2.769,2.769,0,0,1-2.769-2.769V82.6A2.769,2.769,0,0,1,50.6,80.386l4.814-3.611A3.089,3.089,0,0,1,59.119,76.776Z" transform="translate(-48 -74.667)"/><path class="b" d="M475.412,464a.746.746,0,0,1,.743.684l0,.061v4.26a.746.746,0,0,1-1.489.061l0-.061v-4.26A.746.746,0,0,1,475.412,464Z" transform="translate(-466.146 -456.225)"/></g></g></svg>