<svg xmlns="http://www.w3.org/2000/svg" width="16" height="16" viewBox="0 0 16 16"><defs><style>.cls-1{opacity:0}.cls-2{opacity:.19}.cls-3{opacity:.65}</style></defs><g id="yygl_icon_tzgg_nor" transform="translate(-15 -376)"><g id="组_2025" class="cls-1" data-name="组 2025" transform="translate(0 198)"><rect id="矩形_56" width="16" height="16" class="cls-2" data-name="矩形 56" transform="translate(15 178)"/></g><path id="路径_5782" d="M75.2,62.585v.054a1.017,1.017,0,0,0,1.016.963h1.22l3.81,2.382a.746.746,0,0,0,1.141-.633V55.205a.746.746,0,0,0-.113-.394l-.027-.041a.746.746,0,0,0-1-.2l-3.826,2.383H76.217A1.017,1.017,0,0,0,75.2,57.972Zm.95,0V57.972a.068.068,0,0,1,.068-.068h1.357l.043,0a.475.475,0,0,0,.236-.089l.042-.034,3.545-2.208v9.412l-3.614-2.259a.475.475,0,0,0-.252-.072H76.217A.068.068,0,0,1,76.15,62.585ZM85.91,59.8a.475.475,0,0,1,.039.948l-.039,0h-1.9a.475.475,0,0,1-.039-.948l.039,0Zm-1.021-3.574a.475.475,0,0,1,.668.673l-.033.032-1.411,1.271a.475.475,0,0,1-.668-.673l.033-.033Zm0,8.1a.475.475,0,0,0,.668-.673l-.033-.032L84.112,62.35a.475.475,0,0,0-.668.673l.033.033Z" class="cls-3" data-name="路径 5782" transform="translate(-58.2 323.541)"/></g></svg>