<svg xmlns="http://www.w3.org/2000/svg" width="16" height="16" viewBox="0 0 16 16"><defs><style>.cls-1{opacity:0}.cls-2{opacity:.65}</style></defs><g id="icon_网上练兵" transform="translate(-15 -243)"><rect id="矩形_56" width="16" height="16" class="cls-1" data-name="矩形 56" transform="translate(15 243)"/><g id="组_5712" data-name="组 5712" transform="translate(-94.063 176.348)"><path id="路径_5795" d="M118.857,69.333a1.474,1.474,0,0,1,1.473,1.418v2.684h.32a1.474,1.474,0,0,1,1.473,1.418V78.5a1.474,1.474,0,0,1-1.418,1.473h-7.234A1.474,1.474,0,0,1,112,78.554V70.807a1.474,1.474,0,0,1,1.418-1.473h5.439Zm1.474,7.37a.449.449,0,0,1-.9.037l0-.037v-5.9a.577.577,0,0,0-.537-.575h-5.423a.577.577,0,0,0-.575.537V78.5a.577.577,0,0,0,.537.575h7.217a.577.577,0,0,0,.575-.537V74.909a.577.577,0,0,0-.537-.575h-.36Z" class="cls-2" data-name="路径 5795"/><path id="路径_5796" d="M317.695,325.333a.449.449,0,0,1,.037.9l-.037,0h-2.563a.449.449,0,0,1-.037-.9l.037,0Zm-1.282,2.563a.449.449,0,0,1,.037.9l-.037,0h-1.282a.449.449,0,0,1-.037-.9l.037,0Z" class="cls-2" data-name="路径 5796" transform="translate(-200.247 -252.924)"/></g></g></svg>