<svg xmlns="http://www.w3.org/2000/svg" width="16" height="16" viewBox="0 0 16 16"><defs><style>.cls-1{opacity:0}.cls-2{opacity:.65}</style></defs><g id="shezhi_icon_zhjs_nor" transform="translate(-1155 -233)"><rect id="矩形_56" width="16" height="16" class="cls-1" data-name="矩形 56" transform="translate(1155 233)"/><g id="组_2488" class="cls-2" data-name="组 2488" transform="translate(1157.361 234.789)"><path id="路径_2885" d="M96.306,48a3.356,3.356,0,0,1,3.346,3.111.5.5,0,1,1-1,.072,2.356,2.356,0,0,0-4.7.1v1.285h5.5a2.5,2.5,0,0,1,2.5,2.425v2.929a2.5,2.5,0,0,1-2.5,2.5H93.165a2.5,2.5,0,0,1-2.5-2.5V55.067a2.5,2.5,0,0,1,2.284-2.489V51.355A3.355,3.355,0,0,1,96.306,48Zm3.141,5.568H93.165a1.5,1.5,0,0,0-1.5,1.5v2.855a1.5,1.5,0,0,0,1.5,1.5h6.282a1.5,1.5,0,0,0,1.5-1.5V55.067A1.5,1.5,0,0,0,99.447,53.568Z" data-name="路径 2885" transform="translate(-90.667 -48)"/><path id="路径_2886" d="M485.833,581.333a.5.5,0,0,1,.5.459l0,.041v1.713a.5.5,0,0,1-1,.041l0-.041v-1.713A.5.5,0,0,1,485.833,581.333Z" data-name="路径 2886" transform="translate(-480.051 -574.195)"/></g></g></svg>