<svg xmlns="http://www.w3.org/2000/svg" width="32" height="32" viewBox="0 0 32 32"><defs><style>.a{opacity:0;}.b{fill:#1890ff;}</style></defs><g transform="translate(-732 -328)"><rect class="a" width="32" height="32" transform="translate(732 328)"/><g transform="translate(674.618 290.941)"><path class="b" d="M78.009,44.836h3.26a4.281,4.281,0,0,1,4.281,4.281V61.508a4.281,4.281,0,0,1-4.281,4.281H65.5a4.281,4.281,0,0,1-4.281-4.281V49.117A4.281,4.281,0,0,1,65.5,44.836h3.141l-1.684-3.183a.9.9,0,1,1,1.593-.843l2.13,4.026H75.97L78.1,40.81a.9.9,0,0,1,1.594.843ZM65.5,46.639a2.478,2.478,0,0,0-2.478,2.478V61.508A2.478,2.478,0,0,0,65.5,63.986H81.269a2.478,2.478,0,0,0,2.478-2.478V49.117a2.478,2.478,0,0,0-2.478-2.478Z"/><path class="b" d="M353.391,412.567v7.473a1.464,1.464,0,0,0,2.218,1.256l6.227-3.737a1.464,1.464,0,0,0,0-2.512l-6.227-3.736a1.464,1.464,0,0,0-2.218,1.256Zm7.035,3.737-5.232,3.139v-6.279Z" transform="translate(-284.289 -360.765)"/></g></g></svg>