<svg xmlns="http://www.w3.org/2000/svg" width="16" height="16" viewBox="0 0 16 16">
  <defs>
    <style>
      .cls-1 {
        opacity: 0;
      }

      .cls-2 {
        stroke: rgba(0,0,0,0);
        stroke-miterlimit: 10;
        opacity: 0.65;
      }
    </style>
  </defs>
  <g id="stgx_icon_stgxtp_nor" transform="translate(-699 -376)">
    <rect id="矩形_56" data-name="矩形 56" class="cls-1" width="16" height="16" transform="translate(699 376)"/>
    <path id="路径_2869" data-name="路径 2869" class="cls-2" d="M117.295,93.314v2.648h-2.648a2.647,2.647,0,1,1,2.648-2.648Zm-2.648,1.646h1.646V93.314a1.646,1.646,0,1,0-1.646,1.646Zm3.363-1.646v2.648h2.647a2.647,2.647,0,1,0-2.647-2.648Zm2.647,1.646h-1.646V93.314a1.646,1.646,0,1,1,1.646,1.646Zm-6.011,7.012a2.648,2.648,0,0,1,0-5.3h2.648v2.647A2.648,2.648,0,0,1,114.647,101.972Zm.063-1a1.646,1.646,0,0,0,1.583-1.645V97.679h-1.646a1.646,1.646,0,0,0,0,3.291Zm5.948,1a2.647,2.647,0,0,1-2.647-2.648V96.677h2.647a2.648,2.648,0,1,1,0,5.3Zm0-1a1.646,1.646,0,0,0,1.646-1.646v-.063a1.646,1.646,0,0,0-1.645-1.583h-1.646v1.646A1.646,1.646,0,0,0,120.658,100.97Z" transform="translate(589.347 287.68)"/>
  </g>
</svg>
