<svg xmlns="http://www.w3.org/2000/svg" width="32" height="32" viewBox="0 0 32 32">
  <defs>
    <style>
      .cls-1 {
        opacity: 0;
      }

      .cls-2 {
        fill: #1890ff;
      }
    </style>
  </defs>
  <g id="icon_stgx" transform="translate(-732 -328)">
    <rect id="矩形_2096" data-name="矩形 2096" class="cls-1" width="32" height="32" transform="translate(732 328)"/>
    <path id="路径_5784" data-name="路径 5784" class="cls-2" d="M62.085,149.333v5.93h-.033a5.338,5.338,0,1,1-5.9-5.9v-.033Zm-2.076,2.076h-3.45l-.177.02a3.262,3.262,0,0,0-2.894,3.1l0,.138a3.262,3.262,0,0,0,6.485.5l.018-.136.02-.182Zm12.157-.3v4.744h-.009a4.448,4.448,0,1,1-4.735-4.735v-.01Zm-1.78,1.779H67.628l-.09.006a2.669,2.669,0,0,0-2.486,2.536l0,.128a2.669,2.669,0,0,0,5.32.306l.012-.126,0-.081v-2.768Zm-8.6,8.451H51.706A3.706,3.706,0,0,0,48,165.049v1.483a2.224,2.224,0,0,0,2.224,2.224H63.271a2.224,2.224,0,0,0,2.224-2.224v-1.483A3.706,3.706,0,0,0,61.788,161.342Zm-10.082,2.076H61.788a1.631,1.631,0,0,1,1.631,1.631v1.483a.148.148,0,0,1-.148.148H50.224a.148.148,0,0,1-.148-.148v-1.483A1.631,1.631,0,0,1,51.706,163.418Zm19.417-2.08a3.042,3.042,0,0,1,3.039,2.913l0,.129v1.2a1.847,1.847,0,0,1-1.741,1.843l-.1,0H67.374a.89.89,0,0,1-.085-1.775l.085,0H72.32a.067.067,0,0,0,.061-.041l.005-.026v-1.2a1.263,1.263,0,0,0-1.172-1.26l-.09,0h-4.3a.89.89,0,0,1-.086-1.775l.086,0h4.3Z" transform="translate(686.917 184.957)"/>
  </g>
</svg>
