<svg xmlns="http://www.w3.org/2000/svg" width="16" height="16" viewBox="0 0 16 16">
  <defs>
    <style>
      .cls-1 {
        opacity: 0;
      }

      .cls-2 {
        stroke: rgba(0,0,0,0);
        stroke-miterlimit: 10;
        opacity: 0.65;
      }
    </style>
  </defs>
  <g id="stgx_icon_stgxlb_nor" transform="translate(-699 -328)">
    <rect id="矩形_56" data-name="矩形 56" class="cls-1" width="16" height="16" transform="translate(699 328)"/>
    <path id="路径_2867" data-name="路径 2867" class="cls-2" d="M55.509,149.333v3.161h-.017a2.846,2.846,0,1,1-3.144-3.144v-.018ZM54.4,150.44H52.563l-.094.011a1.739,1.739,0,0,0-1.543,1.654l0,.074a1.739,1.739,0,0,0,3.457.267l.009-.073.011-.1Zm6.481-.158v2.529h-.005a2.371,2.371,0,1,1-2.524-2.524v-.005Zm-.949.948h-1.47l-.048,0a1.423,1.423,0,0,0-1.325,1.352l0,.068a1.423,1.423,0,0,0,2.836.163l.006-.067,0-.043V151.23Zm-4.584,4.505H49.976A1.976,1.976,0,0,0,48,157.711v.79a1.186,1.186,0,0,0,1.186,1.186h6.955a1.186,1.186,0,0,0,1.186-1.186v-.79A1.976,1.976,0,0,0,55.35,155.735Zm-5.375,1.107H55.35a.869.869,0,0,1,.869.869v.79a.079.079,0,0,1-.079.079H49.186a.079.079,0,0,1-.079-.079v-.79A.869.869,0,0,1,49.976,156.842Zm10.351-1.109a1.622,1.622,0,0,1,1.62,1.553l0,.069v.637a.984.984,0,0,1-.928.983l-.056,0H58.329a.474.474,0,0,1-.046-.946l.046,0h2.637a.036.036,0,0,0,.033-.022l0-.014v-.637a.673.673,0,0,0-.625-.671l-.048,0H58.036a.474.474,0,0,1-.046-.946l.046,0h2.291Z" transform="translate(652.025 181.49)"/>
  </g>
</svg>
