<svg xmlns="http://www.w3.org/2000/svg" width="32" height="32" viewBox="0 0 32 32"><defs><style>.a{opacity:0;}.b{fill:#1890ff;}</style></defs><g transform="translate(-732 -328)"><rect class="a" width="32" height="32" transform="translate(732 328)"/><g transform="translate(606.951 262.783)"><path class="b" d="M135.428,70.182h11.24a3.883,3.883,0,0,1,3.883,3.883V88.371a3.883,3.883,0,0,1-3.883,3.883h-11.24a3.883,3.883,0,0,1-3.883-3.883V74.065A3.883,3.883,0,0,1,135.428,70.182Zm0,1.635a2.248,2.248,0,0,0-2.248,2.248V88.371a2.248,2.248,0,0,0,2.248,2.248h11.24a2.248,2.248,0,0,0,2.248-2.248V74.065a2.248,2.248,0,0,0-2.248-2.248Z"/><path class="b" d="M296,337.726h5.109a.817.817,0,0,0,0-1.635H296a.817.817,0,0,0,0,1.635Zm0,4.087h9.2a.817.817,0,0,0,0-1.635H296a.817.817,0,0,0,0,1.635Zm0,4.087h9.2a.817.817,0,0,0,0-1.635H296a.817.817,0,0,0,0,1.635Z" transform="translate(-159.549 -259.267)"/></g></g></svg>