<svg xmlns="http://www.w3.org/2000/svg" width="16" height="16" viewBox="0 0 16 16">
  <defs>
    <style>
      .cls-1 {
        opacity: 0;
      }

      .cls-2 {
        stroke: rgba(0,0,0,0);
        stroke-miterlimit: 10;
        opacity: 0.65;
      }
    </style>
  </defs>
  <g id="stgx_icon_zjk_nor" transform="translate(-699 -424)">
    <rect id="矩形_1783" data-name="矩形 1783" class="cls-1" width="16" height="16" transform="translate(699 424)"/>
    <path id="路径_2868" data-name="路径 2868" class="cls-2" d="M95.667,48a2.721,2.721,0,1,0,2.722,2.721A2.722,2.722,0,0,0,95.667,48Zm0,.886a1.835,1.835,0,1,1-1.835,1.835A1.835,1.835,0,0,1,95.667,48.886Zm0,5.19a5.909,5.909,0,0,0-4.644,2.129,1.456,1.456,0,0,0-.356.954v.524A1.329,1.329,0,0,0,92,59.013h7.342a1.329,1.329,0,0,0,1.329-1.329v-.524a1.456,1.456,0,0,0-.356-.954A5.908,5.908,0,0,0,95.667,54.076Zm0,.886a5.025,5.025,0,0,1,3.975,1.824.571.571,0,0,1,.139.373v.524a.443.443,0,0,1-.443.443H92a.443.443,0,0,1-.443-.443v-.524a.571.571,0,0,1,.139-.373A5.025,5.025,0,0,1,95.667,54.962Z" transform="translate(611.333 378.494)"/>
  </g>
</svg>
