<svg id="icon-test-2" xmlns="http://www.w3.org/2000/svg" width="13.793" height="10.837" viewBox="0 0 13.793 10.837">
  <defs>
    <style>
      .cls-1 {
        fill: rgba(0,0,0,0.45);
      }
    </style>
  </defs>
  <path id="路径_452" data-name="路径 452" class="cls-1" d="M354.463,355.941a1.478,1.478,0,1,1,1.478-1.478,1.478,1.478,0,0,1-1.478,1.478m0-3.941a2.463,2.463,0,1,0,2.463,2.463A2.466,2.466,0,0,0,354.463,352" transform="translate(-347.567 -349.044)"/>
  <path id="路径_453" data-name="路径 453" class="cls-1" d="M70.9,169.852c-3.264,0-5.911-3.941-5.911-4.433s2.647-4.433,5.911-4.433,5.911,3.941,5.911,4.433-2.647,4.433-5.911,4.433m0-9.852c-3.8,0-6.9,4.357-6.9,5.419s3.1,5.419,6.9,5.419,6.9-4.357,6.9-5.419S74.695,160,70.9,160" transform="translate(-64 -160)"/>
</svg>
