<svg xmlns="http://www.w3.org/2000/svg" width="32" height="32" viewBox="0 0 32 32"><defs><style>.cls-1{opacity:0}.cls-2{fill:#1890ff}</style></defs><g id="icon_ykt" transform="translate(-471 -280)"><rect id="矩形_56" width="32" height="32" class="cls-1" data-name="矩形 56" transform="translate(471 280)"/><g id="组_2436" data-name="组 2436" transform="translate(475.685 285.348)"><path id="路径_2865" d="M62.577,54.335A3.352,3.352,0,0,1,65.8,56.242h.61a2.78,2.78,0,0,1,2.778,2.671l0,.11V70.937a2.78,2.78,0,0,1-2.671,2.778l-.109,0H65.8a3.351,3.351,0,0,1-3.221,1.907l-11.419-.659A3.351,3.351,0,0,1,48,71.621V58.339a3.351,3.351,0,0,1,3.158-3.345Zm.192,1.732-.091,0-11.419.659a1.614,1.614,0,0,0-1.521,1.611V71.621a1.613,1.613,0,0,0,1.52,1.611l11.419.659.093,0a1.614,1.614,0,0,0,1.614-1.614V57.68l0-.093a1.613,1.613,0,0,0-1.7-1.518Zm3.353,16.062h.286a1.191,1.191,0,0,0,1.189-1.11l0-.082V59.022a1.191,1.191,0,0,0-1.11-1.189l-.082,0h-.286Z" class="cls-2" data-name="路径 2865" transform="translate(-48 -54.329)"/><path id="路径_2866" d="M309.562,362.379a1.737,1.737,0,0,0-.229.862v3.4a1.738,1.738,0,0,0,2.694,1.451l2.759-1.82a1.738,1.738,0,0,0-.094-2.959l-2.759-1.577a1.738,1.738,0,0,0-2.32.563Zm1.632.646,2.759,1.576a.248.248,0,0,1,.013.423l-2.759,1.819a.248.248,0,0,1-.385-.207v-3.4a.248.248,0,0,1,.371-.215Z" class="cls-2" data-name="路径 2866" transform="translate(-303.252 -354.355)"/></g></g></svg>