<svg xmlns="http://www.w3.org/2000/svg" width="32" height="32" viewBox="0 0 32 32">
  <defs>
    <style>
      .cls-1 {
        opacity: 0;
      }

      .cls-2 {
        fill: #1890fa;
      }
    </style>
  </defs>
  <g id="icon_zpgg" transform="translate(-243 -424)">
    <rect id="矩形_56" data-name="矩形 56" class="cls-1" width="32" height="32" transform="translate(243 424)"/>
    <g id="组_2319" data-name="组 2319" transform="translate(249 430)">
      <path id="路径_2839" data-name="路径 2839" class="cls-2" d="M122.559,64a3.076,3.076,0,0,1,3.076,3.076V83.381a1.538,1.538,0,0,1-2.307,1.332l-6.413-3.7a1.025,1.025,0,0,0-1-.012l-6.97,3.8a1.538,1.538,0,0,1-2.275-1.35V67.076A3.076,3.076,0,0,1,109.743,64Zm0,1.794H109.743a1.282,1.282,0,0,0-1.279,1.2l0,.084V83.021l6.591-3.6a2.82,2.82,0,0,1,2.643-.031l.117.064,6.029,3.479V67.076a1.282,1.282,0,0,0-1.2-1.279Z" transform="translate(-106.667 -64)"/>
      <path id="路径_2840" data-name="路径 2840" class="cls-2" d="M366.255,256a3.589,3.589,0,1,1-3.589,3.589A3.589,3.589,0,0,1,366.255,256Zm0,1.794a1.794,1.794,0,1,0,1.794,1.794A1.794,1.794,0,0,0,366.255,257.794Z" transform="translate(-356.515 -251.386)"/>
    </g>
  </g>
</svg>
