<svg xmlns="http://www.w3.org/2000/svg" width="48" height="48" viewBox="0 0 48 48"><defs><style>.a{fill:#fff;stroke:#707070;opacity:0;}.b{fill:#389efa;}.c{stroke:none;}.d{fill:none;}</style></defs><g transform="translate(-280 -1189)"><g class="a" transform="translate(280 1189)"><rect class="c" width="48" height="48"/><rect class="d" x="0.5" y="0.5" width="47" height="47"/></g><path class="b" d="M246.611,69.189a4.8,4.8,0,0,0-4.8-4.805h-22.4a4.8,4.8,0,0,0-4.8,4.805V80.814l5.644,5.264a15.189,15.189,0,1,0,21.092.346l5.264-5.61Zm-10.8,1.595a1.2,1.2,0,1,1,2.4,0v6.4a1.2,1.2,0,1,1-2.4,0Zm-6.4-1.6a1.2,1.2,0,1,1,2.4,0v9.6a1.2,1.2,0,1,1-2.4,0Zm-6.4,1.6a1.2,1.2,0,1,1,2.4,0v6.4a1.2,1.2,0,1,1-2.4,0Zm13.875,25.355-2.851,2.779.673,3.924c.075.436-.183.622-.573.416l-3.524-1.853-3.524,1.853c-.391.206-.648.018-.573-.416l.673-3.924-2.851-2.779c-.317-.308-.217-.61.219-.674l3.94-.572,1.762-3.57c.2-.4.513-.4.708,0l1.762,3.57,3.94.572C237.1,95.528,237.2,95.831,236.885,96.139Z" transform="translate(73.389 1124.617)"/></g></svg>