<svg xmlns="http://www.w3.org/2000/svg" width="32" height="32" viewBox="0 0 32 32">
  <defs>
    <style>
      .cls-1 {
        opacity: 0;
      }

      .cls-2 {
        fill: #1890fa;
      }
    </style>
  </defs>
  <g id="icon_zsk" transform="translate(-243 -376)">
    <rect id="矩形_56" data-name="矩形 56" class="cls-1" width="32" height="32" transform="translate(243 376)"/>
    <g id="组_2352" data-name="组 2352" transform="translate(249 382.001)">
      <path id="路径_2861" data-name="路径 2861" class="cls-2" d="M125.53,69.333a2.908,2.908,0,0,1,2.906,2.8l0,.111v5.185h.632a2.908,2.908,0,0,1,2.906,2.8l0,.111v7.081a2.908,2.908,0,0,1-2.8,2.906l-.111,0H114.908a2.908,2.908,0,0,1-2.906-2.8l0-.111V72.242a2.908,2.908,0,0,1,2.8-2.906l.111,0Zm2.908,14.542a.885.885,0,0,1-1.767.073l0-.073V72.242a1.138,1.138,0,0,0-1.06-1.136l-.078,0H114.908a1.138,1.138,0,0,0-1.136,1.06l0,.078V87.416a1.138,1.138,0,0,0,1.06,1.136l.078,0h14.163a1.138,1.138,0,0,0,1.136-1.06l0-.078V80.335a1.138,1.138,0,0,0-1.06-1.136l-.078,0h-.632Z" transform="translate(-112 -69.333)"/>
      <path id="路径_2862" data-name="路径 2862" class="cls-2" d="M320.626,325.333a.885.885,0,0,1,.073,1.767l-.073,0h-5.058a.885.885,0,0,1-.073-1.767l.073,0Zm-2.529,5.058a.885.885,0,0,1,.073,1.767l-.073,0h-2.529a.885.885,0,0,1-.073-1.767l.073,0Z" transform="translate(-309.877 -319.264)"/>
    </g>
  </g>
</svg>
