<svg xmlns="http://www.w3.org/2000/svg" width="48" height="48" viewBox="0 0 48 48"><defs><style>.a{fill:#fff;stroke:#707070;opacity:0;}.b{fill:#389efa;}.c{stroke:none;}.d{fill:none;}</style></defs><g transform="translate(-280 -1189)"><g class="a" transform="translate(280 1189)"><rect class="c" width="48" height="48"/><rect class="d" x="0.5" y="0.5" width="47" height="47"/></g><path class="b" d="M102.5,100.2q.694,0,1.387.065a2.818,2.818,0,0,1,2.559,2.812v31.7a2.818,2.818,0,0,1-2.72,2.817,25.141,25.141,0,0,0-6.957,1.1,20.139,20.139,0,0,0-7.258,4.527V107.775A15.065,15.065,0,0,1,102.5,100.2Zm6.774,35.247v-28.93a2.807,2.807,0,0,1,1.995.828,2.839,2.839,0,0,1,.828,1.995v28.7c0,2.242-1.4,5.871-5.645,5.505a40.3,40.3,0,0,0-5.7-.317,42.987,42.987,0,0,0-9.016.683,15.108,15.108,0,0,1,5.941-2.823,37.622,37.622,0,0,1,6.22-.608A5.331,5.331,0,0,0,109.277,135.447ZM73.7,100.2a15.065,15.065,0,0,1,12.989,7.575v35.457a19.992,19.992,0,0,0-7.258-4.527,25.122,25.122,0,0,0-6.957-1.1,2.815,2.815,0,0,1-2.715-2.823V103.076a2.817,2.817,0,0,1,2.559-2.806A13.138,13.138,0,0,1,73.7,100.2Zm-6.774,35.247c0,2.328,1.72,4.9,5.441,5.038,2.462.091,4,.36,6.167.608a11.724,11.724,0,0,1,5.984,2.823,39.447,39.447,0,0,0-9.064-.683c-2.183,0-2.564.317-5.7.317a5.755,5.755,0,0,1-5.65-5.505V109.334a2.822,2.822,0,0,1,2.823-2.823v28.935Zm0,0" transform="translate(215.9 1090.942)"/></g></svg>