<svg xmlns="http://www.w3.org/2000/svg" width="32" height="32" viewBox="0 0 32 32">
  <defs>
    <style>
      .cls-1 {
        opacity: 0;
      }

      .cls-2 {
        fill: #1890ff;
      }
    </style>
  </defs>
  <g id="icon_zxzj" transform="translate(-732 -328)">
    <rect id="矩形_2096" data-name="矩形 2096" class="cls-1" width="32" height="32" transform="translate(732 328)"/>
    <g id="组_6281" data-name="组 6281" transform="translate(687.271 283.271)">
      <path id="路径_6203" data-name="路径 6203" class="cls-2" d="M60.729,48A12.729,12.729,0,0,0,48,60.729l0,.327,0,.123L48,61.23l0,.042v8.822l0,.142a3.371,3.371,0,0,0,3.362,3.223h8.779l.084,0,.05-.006-.2-.007q.325.017.653.016a12.729,12.729,0,0,0,0-25.458Zm0,2.048a10.681,10.681,0,0,1,0,21.362c-.184,0-.366,0-.549-.014H60.1q-.041,0-.082.006l-.071.009H51.365a1.317,1.317,0,0,1-1.315-1.25l0-.092V61.509l.01-.064a1.116,1.116,0,0,0,0-.166q-.014-.274-.014-.549A10.68,10.68,0,0,1,60.729,50.048Z"/>
      <path id="路径_6204" data-name="路径 6204" class="cls-2" d="M354.73,410.667a1.024,1.024,0,0,1,.084,2.045l-.084,0h-7.023a1.024,1.024,0,0,1-.084-2.045l.084,0Zm-4.682,5.267a1.024,1.024,0,0,1,.084,2.045l-.084,0h-2.341a1.024,1.024,0,0,1-.084-2.045l.084,0Z" transform="translate(-290.489 -352.717)"/>
    </g>
  </g>
</svg>
